<svg xmlns="http://www.w3.org/2000/svg" width="900" height="660" viewBox="0 0 900 660" font-family="sans-serif">
<rect width="900" height="660" fill="white"/>
<text x="10" y="22" font-size="15">speed=140 Kp=0.01 Kd=2.89  ->  time up (stable)  (max wobble 10.2cm, t=30.0s)</text>
<g transform="translate(0,30)">
<polyline points="193.1,120.8 196.4,120.8 199.6,120.8 202.8,120.8 206.1,120.8 209.3,120.8 212.5,120.8 215.7,120.8 219.0,120.8 222.2,120.8 225.4,120.8 228.6,120.8 231.9,120.8 235.1,120.8 238.3,120.8 241.6,120.8 244.8,120.8 248.0,120.8 251.2,120.8 254.5,120.8 257.7,120.8 260.9,120.8 264.1,120.8 267.4,120.8 270.6,120.8 273.8,120.8 277.1,120.8 280.3,120.8 283.5,120.8 286.7,120.8 290.0,120.8 293.2,120.8 296.4,120.8 299.6,120.8 302.9,120.8 306.1,120.8 309.3,120.8 312.6,120.8 315.8,120.8 319.0,120.8 322.2,120.8 325.5,120.8 328.7,120.8 331.9,120.8 335.1,120.8 338.4,120.8 341.6,120.8 344.8,120.8 348.1,120.8 351.3,120.8 354.5,120.8 357.7,120.8 361.0,120.8 364.2,120.8 367.4,120.8 370.6,120.8 373.9,120.8 377.1,120.8 380.3,120.8 383.6,120.8 386.8,120.8 390.0,120.8 393.2,120.8 396.5,120.8 399.7,120.8 402.9,120.8 406.1,120.8 409.4,120.8 412.6,120.8 415.8,120.8 419.1,120.8 422.3,120.8 425.5,120.8 428.7,120.8 432.0,120.8 435.2,120.8 438.4,120.8 441.7,120.8 444.9,120.8 448.1,120.8 451.3,120.8 454.6,120.8 457.8,120.8 461.0,120.8 464.2,120.8 467.5,120.8 470.7,120.8 473.9,120.8 477.2,120.8 480.4,120.8 483.0,122.2 485.6,123.9 487.4,125.9 488.1,128.9 488.1,132.1 488.1,135.3 488.1,138.6 488.1,141.8 486.7,144.4 484.4,146.7 482.0,148.6 478.7,148.6 475.5,148.6 472.3,148.6 469.0,148.6 465.8,148.6 462.6,148.6 459.4,148.6 456.1,148.6 452.9,148.6 449.7,148.6 446.5,148.6 443.2,148.6 440.0,148.6 436.8,148.6 433.5,148.6 430.3,148.6 427.1,148.6 423.9,148.6 420.6,148.6 417.4,148.6 414.2,148.6 411.0,148.6 407.7,148.6 404.5,148.6 401.3,148.6 398.0,148.6 394.8,148.6 391.6,148.6 388.4,148.6 385.1,148.6 381.9,148.6 378.7,148.6 375.5,148.6 372.2,148.6 369.0,148.6 365.8,148.6 362.5,148.6 359.3,148.6 356.1,148.6 352.9,148.6 349.6,148.6 346.4,148.6 343.2,148.6 340.0,148.6 336.7,148.6 333.5,148.6 330.3,148.6 327.0,148.6 323.8,148.6 320.6,148.6 317.4,148.6 314.1,148.6 310.9,148.6 307.7,148.6 304.5,148.6 301.2,148.6 298.0,148.6 294.8,148.6 291.5,148.6 288.3,148.6 285.1,148.6 281.9,148.6 278.6,148.6 275.4,148.6 272.2,148.6 269.0,148.6 265.7,148.6 262.5,148.6 259.3,148.6 256.0,148.6 252.8,148.6 249.6,148.6 246.4,148.6 243.1,148.6 239.9,148.6 236.7,148.6 233.5,148.6 230.2,148.6 227.0,148.6 223.8,148.6 220.5,148.6 217.3,148.6 214.1,148.6 210.9,148.6 207.6,148.6 204.4,148.6 201.2,148.6 198.2,149.2 195.1,149.5 193.8,152.2 193.1,155.1 193.1,158.4 193.1,161.6 193.1,164.8 193.1,168.0 193.1,171.3 193.1,174.5 193.1,177.7 193.1,181.0 193.1,184.2 193.1,187.4 193.1,190.6 193.1,193.9 193.1,197.1 193.1,200.3 193.1,203.5 193.1,206.8 193.1,210.0 193.1,213.2 193.1,216.5 193.1,219.7 193.1,222.9 193.1,226.1 193.1,229.4 193.1,232.6 193.1,235.8 193.1,239.0 193.8,242.0 194.8,244.8 197.5,246.0 200.7,246.0 203.9,246.0 207.2,246.0 210.4,246.0 213.6,246.0 216.9,246.0 220.1,246.0 223.3,246.0 226.5,246.0 229.8,246.0 232.7,245.3 235.6,244.6 238.3,243.3 240.6,241.0 242.9,238.7 245.2,236.4 247.4,234.1 249.7,231.9 252.0,229.6 254.3,227.3 256.6,225.1 259.5,224.2 262.2,223.1 265.2,223.8 268.1,224.4 270.6,226.1 272.9,228.4 275.2,230.7 277.5,233.0 279.8,235.2 282.0,237.5 284.3,239.8 286.6,242.1 288.9,244.4 291.8,245.2 294.7,246.0 297.9,246.0 301.1,246.0 304.3,246.0 307.6,246.0 310.8,246.0 314.0,246.0 317.3,246.0 320.5,246.0 323.7,246.0 326.9,246.0 330.2,246.0 333.4,246.0 336.6,246.0 339.8,246.0 343.1,246.0 346.3,246.0 349.5,246.0 352.8,246.0 356.0,246.0 359.2,246.0 362.4,246.0 365.7,246.0 368.9,246.0 372.1,246.0 375.3,246.0 378.6,246.0 381.8,246.0 385.0,246.0 388.3,246.0 391.5,246.0 394.7,246.0 397.9,246.0 401.2,246.0 404.4,246.0 407.6,246.0 410.8,246.0 414.1,246.0 417.3,246.0 420.5,246.0 423.8,246.0 427.0,246.0 430.2,246.0 433.4,246.0 436.7,246.0 439.9,246.0 443.1,246.0 446.3,246.0 449.6,246.0 452.8,246.0 456.0,246.0 459.3,246.0 462.5,246.0 465.7,246.0 468.9,246.0 472.2,246.0 475.4,246.0 478.6,246.0 481.8,246.0 485.1,246.0 488.3,246.0 491.5,246.0 494.8,246.0 498.0,246.0 501.2,246.0 504.4,246.0 507.7,246.0 510.9,246.0 514.1,246.0 517.3,246.0 520.6,246.0 523.8,246.0 527.0,246.0 530.3,246.0 533.5,246.0 536.7,246.0 539.9,246.0 543.2,246.0 546.4,246.0 549.6,246.0 552.8,246.0 556.1,246.0 559.3,246.0 562.5,246.0 565.8,246.0 569.0,246.0 572.2,246.0 575.4,246.0 578.6,246.1 581.6,246.7 584.8,246.7 588.1,246.7 591.0,247.4 593.9,248.1 596.9,248.8 600.1,248.8 602.8,250.1 605.5,251.4 608.3,252.3 611.0,253.7 613.5,255.3 616.0,257.1 618.7,258.5 621.0,260.7 623.0,263.1 625.1,265.5 627.3,267.7 629.1,270.2 631.4,272.5 633.2,275.0 634.8,277.6 635.8,280.4 636.9,283.1 637.9,286.0 638.7,288.9 639.7,291.7 640.4,294.6 640.4,297.8 641.1,300.8 641.1,304.0 641.1,307.2 641.1,310.5 640.4,313.4 640.4,316.6 639.3,319.4 638.3,322.2 637.6,325.2 636.9,328.1 635.5,330.8 634.3,333.5 632.5,336.0 630.7,338.4 628.4,340.7 626.7,343.2 624.4,345.5 622.6,348.0 620.1,349.8 617.8,352.1 615.3,353.8 612.7,355.2 610.3,357.3 607.5,358.2 604.7,359.4 602.1,360.8 599.1,361.5 596.2,362.2 593.2,362.9 590.3,363.6 587.1,363.6 584.1,364.3 580.9,364.3 577.7,364.3 574.5,364.3 571.2,364.3 568.0,364.3 564.8,364.3 561.5,364.3 558.3,364.3 555.1,364.3 551.9,364.3 548.6,364.3 545.4,364.3 542.2,364.3 539.0,364.3 535.7,364.3 532.5,364.3 529.3,364.3 526.0,364.3 522.8,364.3 519.6,364.3 516.4,364.3 513.1,364.3 509.9,364.3 506.7,364.3 503.5,364.3 500.2,364.3 497.0,364.3 493.8,364.3 490.5,364.3 487.3,364.3 484.1,364.3 480.9,364.3 477.6,364.3 474.4,364.3 471.2,364.3 468.0,364.3 464.7,364.3 461.5,364.3 458.3,364.3 455.0,364.3 451.8,364.3 448.6,364.3 445.4,364.3 442.1,364.3 438.9,364.3 435.7,364.3 432.5,364.3 429.2,364.3 426.0,364.3 422.8,364.3 419.5,364.3 416.3,364.3 413.1,364.3 409.9,364.3 406.6,364.3 403.4,364.3 400.2,364.3 397.0,364.3 393.7,364.3 390.8,364.9 390.0,366.8 390.7,369.7 391.4,372.7 391.4,375.9 391.4,379.1 391.4,382.4 390.7,385.3 390.0,388.2 388.9,391.0 386.7,393.3 384.2,395.1 381.7,396.9 378.8,397.6 375.8,398.3 372.9,399.0 369.7,399.0 366.4,399.0 363.2,399.0 360.0,399.0 356.8,399.0 353.5,399.0 350.3,399.0 347.1,399.0 343.8,399.0 340.6,399.0 337.4,399.0 334.2,399.0 330.9,399.0 327.7,399.0 324.5,399.0 321.3,399.0 318.0,399.0 314.8,399.0 311.6,399.0 308.3,399.0 305.1,399.0 301.9,399.0 298.7,399.0 295.4,399.0 292.2,399.0 289.3,398.3 286.3,397.6 283.4,396.9 281.0,395.0 278.5,393.2 276.6,390.8 275.4,388.1 275.1,385.0 274.5,382.0 274.5,378.7 274.5,375.5 274.5,372.3 274.6,369.1 275.9,366.4 274.0,364.3 270.8,364.3 267.6,364.3 264.3,364.3 261.1,364.3 257.9,364.3 254.7,364.3 251.4,364.3 248.2,364.3 245.3,364.9 242.6,366.3 242.3,369.4 241.8,372.4 241.8,375.6 241.8,378.9 241.8,382.1 241.8,385.3 241.8,388.6 241.8,391.8 241.8,395.0 240.4,397.7 237.7,399.0 234.5,399.0 231.3,399.0 228.1,399.0 224.9,399.0 221.6,399.0 218.4,399.0 215.2,399.0 212.0,399.0 208.7,399.0 205.5,399.0 202.3,399.0 199.0,399.0 196.1,398.3 193.9,397.0 193.5,393.9 193.1,390.8 193.1,387.6 193.1,384.3 193.1,381.1 193.1,377.9 193.1,374.7 193.1,371.4 193.1,368.2 192.1,365.6 189.1,364.9 186.2,364.3 183.0,364.3 179.7,364.3 176.7,364.7 173.6,364.9 170.3,364.9 167.4,365.6 164.5,366.3 161.4,366.8 158.6,367.7 155.9,369.1 153.1,370.2 150.5,371.5 148.0,373.3 145.5,375.1 143.0,376.8 140.5,378.6 138.2,380.9 135.9,383.2 134.2,385.7 131.9,388.0 130.1,390.5 128.5,393.0 127.1,395.7 126.2,398.5 124.9,401.2 123.6,403.9 122.9,406.8 122.2,409.8 121.5,412.7 121.5,415.9 121.0,419.0 120.8,422.1 120.8,425.3 121.5,428.3 121.5,431.5 122.2,434.5 122.9,437.4 123.3,440.5 124.3,443.3 125.4,446.0 126.4,448.9 127.8,451.5 129.2,454.2 130.6,456.8 132.9,459.1 134.7,461.5 136.9,463.8 139.2,466.1 141.7,467.9 144.0,470.2 146.5,472.0 149.1,473.5 151.4,475.5 154.3,476.4 157.0,477.6 159.7,479.0 162.6,479.7 165.6,480.4 168.5,481.1 171.5,481.7 174.7,481.8 177.7,481.3 180.8,481.0 183.7,480.2 186.4,478.9 189.0,477.6 191.5,475.8 194.4,474.8 197.0,473.5 199.8,472.4 202.6,471.4 205.3,470.0 207.9,468.6 211.0,468.2 213.8,467.2 217.0,467.0 220.0,466.5 222.9,465.8 226.1,465.8 229.3,465.8 232.3,465.1 235.3,465.6 238.5,465.8 241.7,465.8 244.6,466.5 247.6,467.2 250.6,467.6 253.5,468.4 256.4,469.3 259.0,470.7 261.8,471.8 264.6,472.8 267.3,474.2 270.1,475.2 272.7,476.5 275.4,477.8 278.1,479.1 280.8,480.4 283.5,481.8 286.0,483.5 288.7,484.8 291.4,486.1 294.1,487.4 296.8,488.7 299.4,490.1 302.1,491.3 305.0,492.2 307.6,493.6 310.4,494.7 313.2,495.7 316.2,496.4 319.1,497.1 322.0,497.8 325.0,498.5 328.2,498.5 331.1,499.2 334.4,499.2 337.6,499.2 340.8,499.2 343.9,498.7 347.0,498.5 350.2,498.5 352.9,497.1 355.8,496.4 358.7,495.7 361.6,494.9 364.3,493.6 367.2,492.8 369.9,491.5 372.6,490.2 375.3,488.9 377.9,487.4 380.5,486.0 383.2,484.6 385.8,483.2 388.5,481.9 391.2,480.6 393.9,479.3 396.6,478.0 399.1,476.2 402.0,475.4 404.7,474.1 407.3,472.8 410.0,471.5 412.7,470.2 415.6,469.3 418.5,468.6 421.2,467.3 424.1,466.5 427.3,466.5 430.3,465.8 433.5,465.8 436.5,465.2 439.7,465.1 442.6,465.8 445.8,465.8 449.1,465.8 452.0,466.5 454.9,467.2 458.2,467.2 460.8,468.5 463.8,469.3 466.6,470.1 469.3,471.4 472.0,472.7 474.7,474.0 477.6,474.8 480.2,476.2 483.0,477.4 485.5,479.0 488.2,480.4 490.8,481.8 493.5,483.1 496.1,484.6 498.9,485.7 501.6,487.0 504.1,488.8 506.8,490.1 509.5,491.4 512.3,492.2 515.0,493.6 517.9,494.3 520.6,495.6 523.5,496.4 526.5,497.1 529.3,498.0 532.3,498.5 535.3,499.1 538.5,499.2 541.7,499.2 545.0,499.2 548.2,499.2 551.1,498.5 553.9,497.4 554.7,494.5 554.8,491.3 555.3,488.3 555.5,485.1 557.6,483.2 560.6,482.5 563.8,482.5 567.0,482.5 570.3,482.5 573.5,482.5 576.7,482.5 579.9,482.5 583.2,482.5 586.4,482.5 589.6,482.5" fill="none" stroke="#bbbbbb" stroke-width="32.2"/>
<polyline points="193.4,120.8 217.3,121.5 265.6,123.3 323.1,125.6 386.4,127.7 422.2,128.9 414.1,129.7 393.6,134.0 370.2,140.9 384.0,138.2 406.6,132.9 395.9,138.6 382.9,147.1 371.7,154.7 391.0,145.4 398.7,141.8 387.8,149.4 373.1,158.4 394.1,148.0 402.0,143.8 389.3,152.8 376.4,167.7 363.2,189.7 357.8,197.2 373.6,179.0 404.2,155.5 404.1,156.4 390.4,172.9 379.9,182.9 401.1,166.4 408.8,160.2 393.5,169.5 398.8,166.5 402.7,164.2 393.0,172.0 394.0,171.5 398.0,169.1 390.4,173.3 404.1,166.1 392.0,173.4 398.5,169.9 406.1,165.8 393.2,175.9 391.0,178.1 403.8,167.9 393.8,180.1 382.4,192.2 401.9,175.0 413.8,164.7 405.4,177.1 393.0,197.3 389.1,201.8 410.9,178.0 417.3,170.3 410.8,185.2 404.4,206.0 402.5,211.4 414.2,191.6 420.8,180.9 413.0,196.8 406.7,211.1 415.2,195.2 422.8,181.7 417.5,190.6 408.8,207.0 420.0,189.3 424.5,181.7 420.9,200.4 420.3,222.3 420.6,228.3 426.6,216.6 440.8,191.6 442.3,189.8 436.4,205.0 429.8,219.6 438.6,201.2 435.6,207.6 431.4,216.5 441.5,196.3 438.5,202.0 428.0,220.8 435.0,207.3 439.5,199.2 432.1,213.1 435.8,206.9 432.8,212.7 434.0,210.2 435.6,206.8 428.8,216.1 440.0,200.7 435.2,206.2 430.0,211.8 429.8,211.8 438.1,200.8 428.4,207.9 407.7,217.4 405.1,218.3 425.9,204.7 424.3,204.4 404.5,206.0 377.9,203.4 356.8,200.7 378.0,205.0 427.1,214.1 483.6,222.4 530.5,234.6 567.6,257.6 583.1,276.0 575.1,267.6 558.6,254.6 569.0,263.5 568.7,263.6 556.1,255.3 570.3,265.5 564.5,262.8 546.4,256.8 557.4,261.2 566.5,266.0 551.5,257.3 561.7,264.2 566.4,267.9 562.0,265.0 566.2,269.8 551.8,258.9 559.0,264.5 570.2,274.3 562.0,264.9 565.8,271.0 572.0,280.3 565.0,273.8 548.8,261.4 558.9,270.8 572.8,284.3 565.6,276.1 554.1,262.6 566.3,278.1 563.2,274.0 555.2,265.6 562.9,273.2 555.2,266.8 561.5,273.0 559.3,270.7 556.4,268.0 559.0,270.4 554.1,266.1 566.0,276.7 564.9,276.2 554.4,272.8 538.2,269.2 554.8,274.2 548.9,272.3 549.1,272.6 564.7,279.2 558.6,276.2 547.0,269.2 563.7,283.1 564.0,283.3 550.1,271.1 555.2,276.1 556.8,277.5 549.1,268.5 556.4,278.1 550.8,269.3 558.2,280.5 559.8,283.0 553.2,272.6 555.0,274.7 559.9,281.1 550.2,267.2 562.0,284.0 561.7,283.3 550.1,265.4 559.7,278.5 564.3,284.4 551.5,277.6 539.7,274.2 556.4,279.6 544.3,279.3 521.2,286.1 528.3,284.1 548.8,280.9 536.1,283.5 530.8,284.8 545.5,282.5 537.7,282.2 554.0,285.1 542.2,282.0 551.9,285.8 551.9,285.8 541.8,282.6 553.9,286.8 548.3,284.4 537.4,279.7 558.1,289.3 550.7,286.0 538.9,281.3 561.7,291.0 559.3,289.9 542.4,282.7 547.6,284.4 546.3,283.9 551.2,285.8 539.6,283.5 548.0,284.4 551.8,284.8 540.1,283.7 549.4,285.4 548.7,285.7 539.6,285.0 548.5,286.4 542.2,285.9 541.4,286.0 552.5,287.4 541.1,286.6 542.4,286.7 537.5,286.0 550.2,288.7 552.3,289.0 540.2,287.0 548.3,288.5 539.8,287.4 545.8,289.1 553.2,291.4 537.3,289.0 554.3,292.3 554.1,292.2 544.5,290.7 540.2,290.1 549.0,293.1 538.9,290.2 553.1,294.3 543.9,290.8 543.1,290.3 550.6,293.6 537.7,286.4 547.3,291.9 544.6,290.7 544.5,290.3 544.6,290.3 545.9,290.6 544.3,290.2 546.0,290.8 557.4,293.9 543.2,290.0 541.8,289.7 551.1,292.6 540.0,290.7 546.7,291.2 545.8,290.8 536.1,288.6 556.7,294.2 549.2,293.5 529.5,295.8 547.9,294.6 553.5,294.5 535.2,297.9 533.6,298.4 549.5,296.0 536.4,299.0 532.9,300.1 550.8,295.8 536.7,299.3 539.8,299.5 541.8,299.6 541.1,300.0 547.4,299.6 533.1,304.8 537.1,303.7 552.0,298.5 545.8,302.5 531.5,317.1 524.2,327.7 536.4,313.4 536.1,314.2 531.6,318.9 540.7,312.3 535.8,315.4 546.6,310.1 538.4,315.7 540.5,315.1 553.4,307.7 544.8,311.5 531.2,317.0 554.8,309.4 553.2,309.9 539.4,315.0 541.6,314.5 549.5,311.7 535.0,318.9 551.1,311.9 549.2,313.0 538.1,318.0 552.2,313.0 544.2,316.1 533.2,321.4 551.9,312.4 545.3,315.1 536.5,318.2 553.8,312.8 551.8,313.1 535.4,316.3 544.9,314.8 558.0,312.5 543.3,313.3 535.4,313.6 554.8,310.6 543.5,312.4 540.8,312.8 547.3,311.6 535.3,314.9 550.2,310.9 551.9,310.3 533.8,314.9 541.6,312.3 555.4,307.8 542.8,313.9 538.6,316.3 551.9,311.0 537.5,317.8 540.3,316.7 549.5,312.6 537.0,317.1 546.9,314.1 540.2,316.2 549.3,313.8 549.3,313.7 534.6,316.3 550.7,313.1 539.8,316.3 544.1,314.8 549.7,313.0 535.9,318.0 547.9,313.8 546.0,314.6 536.5,318.6 552.6,313.4 542.4,316.0 540.1,316.5 556.1,312.1 551.1,314.5 539.9,320.4 545.3,317.2 542.7,318.7 549.9,315.7 540.5,321.6 547.8,316.8 548.3,316.4 534.5,323.7 552.5,315.5 556.1,313.9 541.5,320.5 538.3,321.8 555.9,316.2 545.1,320.4 542.6,321.5 554.5,316.7 537.9,321.1 535.7,321.6 559.7,315.4 549.9,320.0 536.7,326.6 557.2,317.1 552.6,319.1 537.8,326.5 554.5,318.0 549.7,319.9 539.6,324.1 553.9,319.1 544.9,322.3 544.6,322.4 553.1,319.2 542.1,325.7 548.9,320.7 550.7,319.5 543.1,324.2 553.0,318.8 542.0,325.9 549.1,322.1 563.9,313.9 549.5,320.3 539.8,323.7 561.2,316.6 553.9,320.3 537.1,329.4 553.1,322.0 546.6,323.7 545.9,323.3 544.9,323.2 538.5,325.0 555.9,319.4 542.6,323.0 543.3,322.5 557.4,319.1 547.0,320.3 530.4,322.1 554.3,317.6 557.6,317.4 542.8,327.1 545.0,325.0 553.1,317.6" fill="none" stroke="#1f6feb" stroke-width="1.5" stroke-opacity="0.5"/>
<circle r="7" fill="red">
  <animateMotion dur="30.0s" repeatCount="indefinite" path="M 193.4,120.8 L 217.3,121.5 L 265.6,123.3 L 323.1,125.6 L 386.4,127.7 L 422.2,128.9 L 414.1,129.7 L 393.6,134.0 L 370.2,140.9 L 384.0,138.2 L 406.6,132.9 L 395.9,138.6 L 382.9,147.1 L 371.7,154.7 L 391.0,145.4 L 398.7,141.8 L 387.8,149.4 L 373.1,158.4 L 394.1,148.0 L 402.0,143.8 L 389.3,152.8 L 376.4,167.7 L 363.2,189.7 L 357.8,197.2 L 373.6,179.0 L 404.2,155.5 L 404.1,156.4 L 390.4,172.9 L 379.9,182.9 L 401.1,166.4 L 408.8,160.2 L 393.5,169.5 L 398.8,166.5 L 402.7,164.2 L 393.0,172.0 L 394.0,171.5 L 398.0,169.1 L 390.4,173.3 L 404.1,166.1 L 392.0,173.4 L 398.5,169.9 L 406.1,165.8 L 393.2,175.9 L 391.0,178.1 L 403.8,167.9 L 393.8,180.1 L 382.4,192.2 L 401.9,175.0 L 413.8,164.7 L 405.4,177.1 L 393.0,197.3 L 389.1,201.8 L 410.9,178.0 L 417.3,170.3 L 410.8,185.2 L 404.4,206.0 L 402.5,211.4 L 414.2,191.6 L 420.8,180.9 L 413.0,196.8 L 406.7,211.1 L 415.2,195.2 L 422.8,181.7 L 417.5,190.6 L 408.8,207.0 L 420.0,189.3 L 424.5,181.7 L 420.9,200.4 L 420.3,222.3 L 420.6,228.3 L 426.6,216.6 L 440.8,191.6 L 442.3,189.8 L 436.4,205.0 L 429.8,219.6 L 438.6,201.2 L 435.6,207.6 L 431.4,216.5 L 441.5,196.3 L 438.5,202.0 L 428.0,220.8 L 435.0,207.3 L 439.5,199.2 L 432.1,213.1 L 435.8,206.9 L 432.8,212.7 L 434.0,210.2 L 435.6,206.8 L 428.8,216.1 L 440.0,200.7 L 435.2,206.2 L 430.0,211.8 L 429.8,211.8 L 438.1,200.8 L 428.4,207.9 L 407.7,217.4 L 405.1,218.3 L 425.9,204.7 L 424.3,204.4 L 404.5,206.0 L 377.9,203.4 L 356.8,200.7 L 378.0,205.0 L 427.1,214.1 L 483.6,222.4 L 530.5,234.6 L 567.6,257.6 L 583.1,276.0 L 575.1,267.6 L 558.6,254.6 L 569.0,263.5 L 568.7,263.6 L 556.1,255.3 L 570.3,265.5 L 564.5,262.8 L 546.4,256.8 L 557.4,261.2 L 566.5,266.0 L 551.5,257.3 L 561.7,264.2 L 566.4,267.9 L 562.0,265.0 L 566.2,269.8 L 551.8,258.9 L 559.0,264.5 L 570.2,274.3 L 562.0,264.9 L 565.8,271.0 L 572.0,280.3 L 565.0,273.8 L 548.8,261.4 L 558.9,270.8 L 572.8,284.3 L 565.6,276.1 L 554.1,262.6 L 566.3,278.1 L 563.2,274.0 L 555.2,265.6 L 562.9,273.2 L 555.2,266.8 L 561.5,273.0 L 559.3,270.7 L 556.4,268.0 L 559.0,270.4 L 554.1,266.1 L 566.0,276.7 L 564.9,276.2 L 554.4,272.8 L 538.2,269.2 L 554.8,274.2 L 548.9,272.3 L 549.1,272.6 L 564.7,279.2 L 558.6,276.2 L 547.0,269.2 L 563.7,283.1 L 564.0,283.3 L 550.1,271.1 L 555.2,276.1 L 556.8,277.5 L 549.1,268.5 L 556.4,278.1 L 550.8,269.3 L 558.2,280.5 L 559.8,283.0 L 553.2,272.6 L 555.0,274.7 L 559.9,281.1 L 550.2,267.2 L 562.0,284.0 L 561.7,283.3 L 550.1,265.4 L 559.7,278.5 L 564.3,284.4 L 551.5,277.6 L 539.7,274.2 L 556.4,279.6 L 544.3,279.3 L 521.2,286.1 L 528.3,284.1 L 548.8,280.9 L 536.1,283.5 L 530.8,284.8 L 545.5,282.5 L 537.7,282.2 L 554.0,285.1 L 542.2,282.0 L 551.9,285.8 L 551.9,285.8 L 541.8,282.6 L 553.9,286.8 L 548.3,284.4 L 537.4,279.7 L 558.1,289.3 L 550.7,286.0 L 538.9,281.3 L 561.7,291.0 L 559.3,289.9 L 542.4,282.7 L 547.6,284.4 L 546.3,283.9 L 551.2,285.8 L 539.6,283.5 L 548.0,284.4 L 551.8,284.8 L 540.1,283.7 L 549.4,285.4 L 548.7,285.7 L 539.6,285.0 L 548.5,286.4 L 542.2,285.9 L 541.4,286.0 L 552.5,287.4 L 541.1,286.6 L 542.4,286.7 L 537.5,286.0 L 550.2,288.7 L 552.3,289.0 L 540.2,287.0 L 548.3,288.5 L 539.8,287.4 L 545.8,289.1 L 553.2,291.4 L 537.3,289.0 L 554.3,292.3 L 554.1,292.2 L 544.5,290.7 L 540.2,290.1 L 549.0,293.1 L 538.9,290.2 L 553.1,294.3 L 543.9,290.8 L 543.1,290.3 L 550.6,293.6 L 537.7,286.4 L 547.3,291.9 L 544.6,290.7 L 544.5,290.3 L 544.6,290.3 L 545.9,290.6 L 544.3,290.2 L 546.0,290.8 L 557.4,293.9 L 543.2,290.0 L 541.8,289.7 L 551.1,292.6 L 540.0,290.7 L 546.7,291.2 L 545.8,290.8 L 536.1,288.6 L 556.7,294.2 L 549.2,293.5 L 529.5,295.8 L 547.9,294.6 L 553.5,294.5 L 535.2,297.9 L 533.6,298.4 L 549.5,296.0 L 536.4,299.0 L 532.9,300.1 L 550.8,295.8 L 536.7,299.3 L 539.8,299.5 L 541.8,299.6 L 541.1,300.0 L 547.4,299.6 L 533.1,304.8 L 537.1,303.7 L 552.0,298.5 L 545.8,302.5 L 531.5,317.1 L 524.2,327.7 L 536.4,313.4 L 536.1,314.2 L 531.6,318.9 L 540.7,312.3 L 535.8,315.4 L 546.6,310.1 L 538.4,315.7 L 540.5,315.1 L 553.4,307.7 L 544.8,311.5 L 531.2,317.0 L 554.8,309.4 L 553.2,309.9 L 539.4,315.0 L 541.6,314.5 L 549.5,311.7 L 535.0,318.9 L 551.1,311.9 L 549.2,313.0 L 538.1,318.0 L 552.2,313.0 L 544.2,316.1 L 533.2,321.4 L 551.9,312.4 L 545.3,315.1 L 536.5,318.2 L 553.8,312.8 L 551.8,313.1 L 535.4,316.3 L 544.9,314.8 L 558.0,312.5 L 543.3,313.3 L 535.4,313.6 L 554.8,310.6 L 543.5,312.4 L 540.8,312.8 L 547.3,311.6 L 535.3,314.9 L 550.2,310.9 L 551.9,310.3 L 533.8,314.9 L 541.6,312.3 L 555.4,307.8 L 542.8,313.9 L 538.6,316.3 L 551.9,311.0 L 537.5,317.8 L 540.3,316.7 L 549.5,312.6 L 537.0,317.1 L 546.9,314.1 L 540.2,316.2 L 549.3,313.8 L 549.3,313.7 L 534.6,316.3 L 550.7,313.1 L 539.8,316.3 L 544.1,314.8 L 549.7,313.0 L 535.9,318.0 L 547.9,313.8 L 546.0,314.6 L 536.5,318.6 L 552.6,313.4 L 542.4,316.0 L 540.1,316.5 L 556.1,312.1 L 551.1,314.5 L 539.9,320.4 L 545.3,317.2 L 542.7,318.7 L 549.9,315.7 L 540.5,321.6 L 547.8,316.8 L 548.3,316.4 L 534.5,323.7 L 552.5,315.5 L 556.1,313.9 L 541.5,320.5 L 538.3,321.8 L 555.9,316.2 L 545.1,320.4 L 542.6,321.5 L 554.5,316.7 L 537.9,321.1 L 535.7,321.6 L 559.7,315.4 L 549.9,320.0 L 536.7,326.6 L 557.2,317.1 L 552.6,319.1 L 537.8,326.5 L 554.5,318.0 L 549.7,319.9 L 539.6,324.1 L 553.9,319.1 L 544.9,322.3 L 544.6,322.4 L 553.1,319.2 L 542.1,325.7 L 548.9,320.7 L 550.7,319.5 L 543.1,324.2 L 553.0,318.8 L 542.0,325.9 L 549.1,322.1 L 563.9,313.9 L 549.5,320.3 L 539.8,323.7 L 561.2,316.6 L 553.9,320.3 L 537.1,329.4 L 553.1,322.0 L 546.6,323.7 L 545.9,323.3 L 544.9,323.2 L 538.5,325.0 L 555.9,319.4 L 542.6,323.0 L 543.3,322.5 L 557.4,319.1 L 547.0,320.3 L 530.4,322.1 L 554.3,317.6 L 557.6,317.4 L 542.8,327.1 L 545.0,325.0 L 553.1,317.6"/>
</circle>
</g></svg>