<svg xmlns="http://www.w3.org/2000/svg" width="900" height="660" viewBox="0 0 900 660" font-family="sans-serif">
<rect width="900" height="660" fill="white"/>
<text x="10" y="22" font-size="16">speed=255 Kp=0.03 Kd=1.2  ->  lap complete  (max wobble 1.6cm, t=5.8s)</text>
<g transform="translate(0,30)">
<polyline points="142.6,555.5 144.3,555.5 146.0,555.5 147.7,555.5 149.4,555.5 151.2,555.5 152.9,555.5 154.6,555.5 156.3,555.5 158.0,555.5 159.7,555.5 161.4,555.5 163.1,555.5 164.8,555.5 166.5,555.5 168.3,555.5 170.0,555.5 171.7,555.5 173.4,555.5 175.1,555.5 176.8,555.5 178.5,555.5 180.2,555.5 181.9,555.5 183.7,555.5 185.4,555.5 187.1,555.5 188.8,555.5 190.5,555.5 192.2,555.5 193.9,555.5 195.6,555.5 197.3,555.5 199.1,555.5 200.8,555.5 202.5,555.5 204.2,555.5 205.9,555.5 207.6,555.5 209.3,555.5 211.0,555.5 212.7,555.5 214.4,555.5 216.2,555.5 217.9,555.5 219.6,555.5 221.3,555.5 223.0,555.5 224.7,555.5 226.4,555.5 228.1,555.5 229.8,555.5 231.6,555.5 233.3,555.5 235.0,555.5 236.7,555.5 238.4,555.5 240.1,555.5 241.8,555.5 243.5,555.5 245.2,555.5 246.9,555.5 248.7,555.5 250.4,555.5 252.1,555.5 253.8,555.5 255.5,555.5 257.2,555.5 258.9,555.5 260.6,555.5 262.3,555.5 264.1,555.5 265.8,555.5 267.5,555.5 269.2,555.5 270.9,555.5 272.6,555.5 274.3,555.5 276.0,555.5 277.7,555.5 279.5,555.5 281.2,555.5 282.9,555.5 284.6,555.5 286.3,555.5 288.0,555.5 289.7,555.5 291.4,555.5 293.1,555.5 294.8,555.5 296.6,555.5 298.3,555.5 300.0,555.5 301.7,555.5 303.4,555.5 305.1,555.5 306.8,555.5 308.5,555.5 310.2,555.5 312.0,555.5 313.7,555.5 315.4,555.5 317.1,555.5 318.8,555.5 320.5,555.5 322.2,555.5 323.9,555.5 325.6,555.5 327.3,555.5 329.1,555.5 330.8,555.5 332.5,555.5 334.2,555.5 335.9,555.5 337.6,555.5 339.3,555.5 341.0,555.5 342.7,555.5 344.5,555.5 346.2,555.5 347.9,555.5 349.6,555.5 351.3,555.5 353.0,555.5 354.7,555.5 356.4,555.5 358.1,555.5 359.9,555.5 361.6,555.5 363.3,555.5 365.0,555.5 366.7,555.5 368.4,555.5 370.1,555.5 371.8,555.5 373.5,555.5 375.2,555.5 377.0,555.5 378.7,555.5 380.4,555.5 382.1,555.5 383.8,555.5 385.5,555.5 387.2,555.5 388.9,555.5 390.6,555.5 392.4,555.5 394.1,555.5 395.8,555.5 397.5,555.5 399.2,555.5 400.9,555.5 402.6,555.5 404.3,555.5 406.0,555.5 407.8,555.5 409.5,555.5 411.2,555.5 412.9,555.5 414.6,555.5 416.3,555.5 418.0,555.5 419.7,555.5 421.4,555.5 423.1,555.5 424.9,555.5 426.6,555.5 428.3,555.5 430.0,555.5 431.7,555.5 433.4,555.5 435.1,555.5 436.8,555.5 438.5,555.5 440.3,555.5 442.0,555.5 443.7,555.5 445.4,555.5 447.1,555.5 448.8,555.5 450.5,555.5 452.2,555.5 453.9,555.5 455.6,555.5 457.4,555.5 459.1,555.5 460.8,555.5 462.5,555.5 464.2,555.5 465.9,555.5 467.6,555.5 469.3,555.5 471.0,555.5 472.8,555.5 474.5,555.5 476.2,555.5 477.9,555.5 479.6,555.5 481.3,555.5 483.0,555.5 484.7,555.5 486.4,555.5 488.2,555.5 489.9,555.5 491.6,555.5 493.3,555.5 495.0,555.5 496.7,555.5 498.4,555.5 500.1,555.5 501.8,555.5 503.5,555.5 505.3,555.5 507.0,555.5 508.7,555.5 510.4,555.5 512.1,555.5 513.8,555.5 515.5,555.5 517.2,555.5 518.9,555.5 520.7,555.5 522.4,555.5 524.1,555.5 525.8,555.5 527.5,555.5 529.2,555.5 530.9,555.5 532.6,555.5 534.3,555.5 536.1,555.5 537.8,555.5 539.5,555.5 541.2,555.5 542.9,555.5 544.6,555.5 546.3,555.5 548.0,555.5 549.7,555.5 551.4,555.5 553.2,555.5 554.9,555.5 556.6,555.5 558.3,555.5 560.0,555.5 561.7,555.5 563.4,555.5 565.1,555.5 566.8,555.5 568.6,555.5 570.3,555.5 572.0,555.5 573.7,555.5 575.4,555.5 577.1,555.5 578.8,555.5 580.5,555.5 582.2,555.5 583.9,555.5 585.7,555.5 587.4,555.5 589.1,555.5 590.8,555.5 592.5,555.5 594.2,555.5 595.9,555.5 597.6,555.5 599.3,555.5 601.1,555.5 602.8,555.5 604.5,555.5 606.2,555.5 607.9,555.5 609.6,555.5 611.3,555.5 613.0,555.5 614.7,555.5 616.5,555.5 618.2,555.5 619.9,555.5 621.6,555.5 623.3,555.5 625.0,555.5 626.7,555.5 628.4,555.5 630.1,555.5 631.8,555.5 633.6,555.5 635.3,555.5 637.0,555.5 638.7,555.5 640.4,555.5 642.1,555.5 643.8,555.5 645.5,555.5 647.2,555.5 649.0,555.5 650.7,555.5 652.4,555.5 654.1,555.5 655.8,555.5 657.5,555.5 659.2,555.5 660.9,555.5 662.6,555.5 664.4,555.5 666.1,555.5 667.8,555.5 669.5,555.5 671.2,555.5 672.9,555.5 674.6,555.5 676.3,555.5 678.0,555.5 679.7,555.5 681.5,555.5 683.2,555.5 684.9,555.5 686.6,555.5 688.3,555.5 690.0,555.5 691.7,555.5 693.4,555.5 695.1,555.5 696.9,555.5 698.6,555.5 700.3,555.5 702.0,555.5 703.7,555.5 705.4,555.5 707.1,555.5 708.8,555.5 710.5,555.5 712.2,555.5 714.0,555.5 715.7,555.5 717.4,555.5 719.1,555.5 720.8,555.5 722.5,555.5 724.2,555.5 725.9,555.5 727.6,555.5 729.4,555.5 731.1,555.5 732.8,555.5 734.5,555.5 736.2,555.5 737.9,555.5 739.6,555.5 741.3,555.5 743.0,555.5 744.8,555.5 746.5,555.5 748.2,555.5 749.9,555.5 751.6,555.5 753.3,555.5 755.0,555.5 756.7,555.5 758.4,555.5 760.1,555.4 761.9,555.4 763.6,555.3 765.3,555.1 767.0,554.9 768.7,554.7 770.4,554.4 772.0,554.1 773.7,553.8 775.4,553.4 777.0,553.0 778.7,552.6 780.3,552.1 782.0,551.5 783.6,551.0 785.2,550.4 786.8,549.8 788.3,549.1 789.9,548.4 791.5,547.7 793.0,546.9 794.5,546.1 796.0,545.2 797.5,544.4 798.9,543.5 800.3,542.5 801.8,541.6 803.1,540.6 804.5,539.6 805.9,538.5 807.2,537.4 808.5,536.3 809.7,535.1 811.0,534.0 812.2,532.8 813.4,531.5 814.6,530.3 815.7,529.0 816.8,527.7 817.9,526.4 818.9,525.0 820.0,523.7 820.9,522.3 821.9,520.8 822.8,519.4 823.7,517.9 824.6,516.5 825.4,515.0 826.2,513.4 826.9,511.9 827.7,510.4 828.4,508.8 829.0,507.2 829.6,505.6 830.2,504.0 830.8,502.4 831.3,500.8 831.7,499.1 832.2,497.5 832.6,495.8 833.0,494.1 833.3,492.4 833.6,490.8 833.8,489.1 834.0,487.4 834.2,485.7 834.3,484.0 834.4,482.3 834.5,480.6 834.5,478.8 834.5,477.1 834.5,475.4 834.5,473.7 834.5,472.0 834.5,470.3 834.5,468.6 834.5,466.9 834.5,465.2 834.5,463.4 834.5,461.7 834.5,460.0 834.5,458.3 834.5,456.6 834.5,454.9 834.5,453.2 834.5,451.5 834.5,449.8 834.5,448.0 834.5,446.3 834.5,444.6 834.5,442.9 834.5,441.2 834.5,439.5 834.5,437.8 834.5,436.1 834.5,434.4 834.5,432.7 834.5,430.9 834.5,429.2 834.5,427.5 834.5,425.8 834.5,424.1 834.5,422.4 834.5,420.7 834.5,419.0 834.5,417.3 834.5,415.5 834.5,413.8 834.5,412.1 834.5,410.4 834.5,408.7 834.5,407.0 834.5,405.3 834.5,403.6 834.5,401.9 834.5,400.1 834.5,398.4 834.5,396.7 834.5,395.0 834.5,393.3 834.5,391.6 834.5,389.9 834.5,388.2 834.5,386.5 834.5,384.8 834.5,383.0 834.5,381.3 834.5,379.6 834.5,377.9 834.5,376.2 834.5,374.5 834.5,372.8 834.5,371.1 834.5,369.4 834.5,367.6 834.5,365.9 834.5,364.2 834.5,362.5 834.5,360.8 834.5,359.1 834.5,357.4 834.5,355.7 834.5,354.0 834.5,352.3 834.5,350.5 834.5,348.8 834.5,347.1 834.5,345.4 834.5,343.7 834.5,342.0 834.5,340.3 834.5,338.6 834.5,336.9 834.5,335.1 834.5,333.4 834.5,331.7 834.5,330.0 834.5,328.3 834.5,326.6 834.5,324.9 834.5,323.2 834.5,321.5 834.5,319.7 834.5,318.0 834.5,316.3 834.5,314.6 834.5,312.9 834.5,311.2 834.5,309.5 834.5,307.8 834.5,306.1 834.5,304.4 834.5,302.6 834.5,300.9 834.5,299.2 834.5,297.5 834.5,295.8 834.5,294.1 834.5,292.4 834.5,290.7 834.5,289.0 834.5,287.2 834.5,285.5 834.5,283.8 834.5,282.1 834.5,280.4 834.5,278.7 834.5,277.0 834.5,275.3 834.5,273.6 834.5,271.8 834.5,270.1 834.5,268.4 834.5,266.7 834.5,265.0 834.5,263.3 834.5,261.6 834.5,259.9 834.5,258.2 834.5,256.5 834.5,254.7 834.5,253.0 834.5,251.3 834.5,249.6 834.5,247.9 834.5,246.2 834.5,244.5 834.5,242.8 834.5,241.1 834.5,239.3 834.5,237.6 834.5,235.9 834.5,234.2 834.5,232.5 834.5,230.8 834.5,229.1 834.5,227.4 834.5,225.7 834.5,224.0 834.5,222.2 834.5,220.5 834.5,218.8 834.5,217.1 834.5,215.4 834.5,213.7 834.5,212.0 834.5,210.3 834.5,208.6 834.5,206.8 834.5,205.1 834.5,203.4 834.5,201.7 834.5,200.0 834.5,198.3 834.5,196.6 834.5,194.9 834.5,193.2 834.5,191.4 834.5,189.7 834.5,188.0 834.5,186.3 834.5,184.6 834.5,182.9 834.5,181.2 834.5,179.5 834.5,177.8 834.5,176.1 834.5,174.3 834.5,172.6 834.5,170.9 834.5,169.2 834.5,167.5 834.5,165.8 834.5,164.1 834.5,162.4 834.5,160.7 834.5,158.9 834.4,157.2 834.2,155.5 834.0,153.8 833.8,152.1 833.6,150.4 833.3,148.8 833.0,147.1 832.6,145.4 832.2,143.7 831.8,142.1 831.3,140.4 830.8,138.8 830.2,137.2 829.7,135.6 829.0,134.0 828.4,132.4 827.7,130.8 827.0,129.3 826.2,127.8 825.4,126.2 824.6,124.7 823.7,123.3 822.9,121.8 821.9,120.4 821.0,118.9 820.0,117.5 819.0,116.2 817.9,114.8 816.9,113.5 815.8,112.2 814.6,110.9 813.5,109.6 812.3,108.4 811.0,107.2 809.8,106.0 808.5,104.9 807.2,103.8 805.9,102.7 804.6,101.6 803.2,100.6 801.8,99.6 800.4,98.6 799.0,97.7 797.5,96.8 796.0,95.9 794.6,95.1 793.0,94.3 791.5,93.5 790.0,92.8 788.4,92.1 786.8,91.4 785.3,90.8 783.6,90.2 782.0,89.6 780.4,89.1 778.8,88.6 777.1,88.2 775.5,87.7 773.8,87.4 772.1,87.0 770.4,86.7 768.7,86.5 767.0,86.2 765.3,86.0 763.6,85.9 761.9,85.8 760.2,85.7 758.5,85.7 756.8,85.6 755.1,85.6 753.4,85.6 751.7,85.6 750.0,85.6 748.2,85.6 746.5,85.6 744.8,85.6 743.1,85.6 741.4,85.6 739.7,85.6 738.0,85.6 736.3,85.6 734.6,85.6 732.9,85.6 731.1,85.6 729.4,85.6 727.7,85.6 726.0,85.6 724.3,85.6 722.6,85.6 720.9,85.6 719.2,85.6 717.5,85.6 715.7,85.6 714.0,85.6 712.3,85.6 710.6,85.6 708.9,85.6 707.2,85.6 705.5,85.6 703.8,85.6 702.1,85.6 700.3,85.6 698.6,85.6 696.9,85.6 695.2,85.6 693.5,85.6 691.8,85.6 690.1,85.6 688.4,85.6 686.7,85.6 685.0,85.6 683.2,85.6 681.5,85.6 679.8,85.6 678.1,85.6 676.4,85.6 674.7,85.6 673.0,85.6 671.3,85.6 669.6,85.6 667.8,85.6 666.1,85.6 664.4,85.6 662.7,85.6 661.0,85.6 659.3,85.6 657.6,85.6 655.9,85.6 654.2,85.6 652.5,85.6 650.7,85.6 649.0,85.6 647.3,85.6 645.6,85.6 643.9,85.6 642.2,85.6 640.5,85.6 638.8,85.6 637.1,85.6 635.3,85.6 633.6,85.6 631.9,85.6 630.2,85.6 628.5,85.6 626.8,85.6 625.1,85.6 623.4,85.6 621.7,85.6 619.9,85.6 618.2,85.6 616.5,85.6 614.8,85.6 613.1,85.6 611.4,85.6 609.7,85.6 608.0,85.6 606.3,85.6 604.6,85.6 602.8,85.6 601.1,85.6 599.4,85.6 597.7,85.6 596.0,85.6 594.3,85.6 592.6,85.6 590.9,85.6 589.2,85.6 587.4,85.6 585.7,85.6 584.0,85.6 582.3,85.6 580.6,85.6 578.9,85.6 577.2,85.6 575.5,85.6 573.8,85.6 572.0,85.6 570.3,85.6 568.6,85.6 566.9,85.6 565.2,85.6 563.5,85.6 561.8,85.6 560.1,85.6 558.4,85.6 556.7,85.6 554.9,85.6 553.2,85.6 551.5,85.6 549.8,85.6 548.1,85.6 546.4,85.6 544.7,85.6 543.0,85.6 541.3,85.6 539.5,85.6 537.8,85.6 536.1,85.6 534.4,85.6 532.7,85.6 531.0,85.6 529.3,85.6 527.6,85.6 525.9,85.6 524.2,85.6 522.4,85.6 520.7,85.6 519.0,85.6 517.3,85.6 515.6,85.6 513.9,85.6 512.2,85.6 510.5,85.6 508.8,85.6 507.0,85.6 505.3,85.6 503.6,85.6 501.9,85.6 500.2,85.6 498.5,85.6 496.8,85.6 495.1,85.6 493.4,85.6 491.6,85.6 489.9,85.6 488.2,85.6 486.5,85.6 484.8,85.6 483.1,85.6 481.4,85.6 479.7,85.6 478.0,85.6 476.3,85.6 474.5,85.6 472.8,85.6 471.1,85.6 469.4,85.6 467.7,85.6 466.0,85.6 464.3,85.6 462.6,85.6 460.9,85.6 459.1,85.6 457.4,85.6 455.7,85.6 454.0,85.6 452.3,85.6 450.6,85.6 448.9,85.6 447.2,85.6 445.5,85.6 443.7,85.6 442.0,85.6 440.3,85.6 438.6,85.6 436.9,85.6 435.2,85.6 433.5,85.6 431.8,85.6 430.1,85.6 428.4,85.6 426.6,85.6 424.9,85.6 423.2,85.6 421.5,85.6 419.8,85.6 418.1,85.6 416.4,85.6 414.7,85.6 413.0,85.6 411.2,85.6 409.5,85.6 407.8,85.6 406.1,85.6 404.4,85.6 402.7,85.6 401.0,85.6 399.3,85.6 397.6,85.6 395.9,85.6 394.1,85.6 392.4,85.6 390.7,85.6 389.0,85.6 387.3,85.6 385.6,85.6 383.9,85.6 382.2,85.6 380.5,85.6 378.7,85.6 377.0,85.6 375.3,85.6 373.6,85.6 371.9,85.6 370.2,85.6 368.5,85.6 366.8,85.6 365.1,85.6 363.3,85.6 361.6,85.6 359.9,85.6 358.2,85.6 356.5,85.6 354.8,85.6 353.1,85.6 351.4,85.6 349.7,85.6 348.0,85.6 346.2,85.6 344.5,85.6 342.8,85.6 341.1,85.6 339.4,85.6 337.7,85.6 336.0,85.6 334.3,85.6 332.6,85.6 330.8,85.6 329.1,85.6 327.4,85.6 325.7,85.6 324.0,85.6 322.3,85.6 320.6,85.6 318.9,85.6 317.2,85.6 315.4,85.6 313.7,85.6 312.0,85.6 310.3,85.6 308.6,85.6 306.9,85.6 305.2,85.6 303.5,85.6 301.8,85.6 300.1,85.6 298.3,85.6 296.6,85.6 294.9,85.6 293.2,85.6 291.5,85.6 289.8,85.6 288.1,85.6 286.4,85.6 284.7,85.6 282.9,85.6 281.2,85.6 279.5,85.6 277.8,85.6 276.1,85.6 274.4,85.6 272.7,85.6 271.0,85.6 269.3,85.6 267.6,85.6 265.8,85.6 264.1,85.6 262.4,85.6 260.7,85.6 259.0,85.6 257.3,85.6 255.6,85.6 253.9,85.6 252.2,85.6 250.4,85.6 248.7,85.6 247.0,85.6 245.3,85.6 243.6,85.6 241.9,85.6 240.2,85.6 238.5,85.6 236.8,85.6 235.0,85.6 233.3,85.6 231.6,85.6 229.9,85.6 228.2,85.6 226.5,85.6 224.8,85.6 223.1,85.6 221.4,85.6 219.7,85.6 217.9,85.6 216.2,85.6 214.5,85.6 212.8,85.6 211.1,85.6 209.4,85.6 207.7,85.6 206.0,85.6 204.3,85.6 202.5,85.6 200.8,85.6 199.1,85.6 197.4,85.6 195.7,85.6 194.0,85.6 192.3,85.6 190.6,85.6 188.9,85.6 187.1,85.6 185.4,85.6 183.7,85.6 182.0,85.6 180.3,85.6 178.6,85.6 176.9,85.6 175.2,85.6 173.5,85.6 171.8,85.6 170.0,85.6 168.3,85.6 166.6,85.6 164.9,85.6 163.2,85.6 161.5,85.6 159.8,85.6 158.1,85.6 156.4,85.6 154.6,85.6 152.9,85.6 151.2,85.6 149.5,85.6 147.8,85.6 146.1,85.6 144.4,85.6 142.7,85.6 141.0,85.7 139.3,85.7 137.5,85.8 135.8,85.9 134.1,86.1 132.4,86.3 130.7,86.6 129.1,86.9 127.4,87.2 125.7,87.5 124.0,87.9 122.4,88.4 120.7,88.8 119.1,89.3 117.5,89.9 115.9,90.4 114.3,91.1 112.7,91.7 111.1,92.4 109.6,93.1 108.0,93.9 106.5,94.6 105.0,95.5 103.5,96.3 102.1,97.2 100.6,98.1 99.2,99.1 97.8,100.1 96.4,101.1 95.1,102.1 93.7,103.2 92.4,104.3 91.1,105.4 89.9,106.6 88.6,107.8 87.4,109.0 86.3,110.2 85.1,111.5 84.0,112.8 82.9,114.1 81.8,115.4 80.8,116.8 79.8,118.2 78.8,119.6 77.9,121.0 77.0,122.5 76.1,123.9 75.3,125.4 74.5,126.9 73.7,128.5 72.9,130.0 72.2,131.6 71.6,133.1 70.9,134.7 70.3,136.3 69.8,137.9 69.2,139.6 68.7,141.2 68.3,142.8 67.9,144.5 67.5,146.2 67.1,147.8 66.8,149.5 66.6,151.2 66.3,152.9 66.1,154.6 66.0,156.3 65.9,158.0 65.8,159.7 65.7,161.4 65.7,163.1 65.7,164.9 65.7,166.6 65.7,168.3 65.7,170.0 65.7,171.7 65.7,173.4 65.7,175.1 65.7,176.8 65.7,178.5 65.7,180.3 65.7,182.0 65.7,183.7 65.7,185.4 65.7,187.1 65.7,188.8 65.7,190.5 65.7,192.2 65.7,193.9 65.7,195.7 65.7,197.4 65.7,199.1 65.7,200.8 65.7,202.5 65.7,204.2 65.7,205.9 65.7,207.6 65.7,209.3 65.7,211.0 65.7,212.8 65.7,214.5 65.7,216.2 65.7,217.9 65.7,219.6 65.7,221.3 65.7,223.0 65.7,224.7 65.7,226.4 65.7,228.2 65.7,229.9 65.7,231.6 65.7,233.3 65.7,235.0 65.7,236.7 65.7,238.4 65.7,240.1 65.7,241.8 65.7,243.5 65.7,245.3 65.7,247.0 65.7,248.7 65.7,250.4 65.7,252.1 65.7,253.8 65.7,255.5 65.7,257.2 65.7,258.9 65.7,260.7 65.7,262.4 65.7,264.1 65.7,265.8 65.7,267.5 65.7,269.2 65.7,270.9 65.7,272.6 65.7,274.3 65.7,276.1 65.7,277.8 65.7,279.5 65.7,281.2 65.7,282.9 65.7,284.6 65.7,286.3 65.7,288.0 65.7,289.7 65.7,291.4 65.7,293.2 65.7,294.9 65.7,296.6 65.7,298.3 65.7,300.0 65.7,301.7 65.7,303.4 65.7,305.1 65.7,306.8 65.7,308.6 65.7,310.3 65.7,312.0 65.7,313.7 65.7,315.4 65.7,317.1 65.7,318.8 65.7,320.5 65.7,322.2 65.7,324.0 65.7,325.7 65.7,327.4 65.7,329.1 65.7,330.8 65.7,332.5 65.7,334.2 65.7,335.9 65.7,337.6 65.7,339.3 65.7,341.1 65.7,342.8 65.7,344.5 65.7,346.2 65.7,347.9 65.7,349.6 65.7,351.3 65.7,353.0 65.7,354.7 65.7,356.5 65.7,358.2 65.7,359.9 65.7,361.6 65.7,363.3 65.7,365.0 65.7,366.7 65.7,368.4 65.7,370.1 65.7,371.8 65.7,373.6 65.7,375.3 65.7,377.0 65.7,378.7 65.7,380.4 65.7,382.1 65.7,383.8 65.7,385.5 65.7,387.2 65.7,389.0 65.7,390.7 65.7,392.4 65.7,394.1 65.7,395.8 65.7,397.5 65.7,399.2 65.7,400.9 65.7,402.6 65.7,404.4 65.7,406.1 65.7,407.8 65.7,409.5 65.7,411.2 65.7,412.9 65.7,414.6 65.7,416.3 65.7,418.0 65.7,419.7 65.7,421.5 65.7,423.2 65.7,424.9 65.7,426.6 65.7,428.3 65.7,430.0 65.7,431.7 65.7,433.4 65.7,435.1 65.7,436.9 65.7,438.6 65.7,440.3 65.7,442.0 65.7,443.7 65.7,445.4 65.7,447.1 65.7,448.8 65.7,450.5 65.7,452.3 65.7,454.0 65.7,455.7 65.7,457.4 65.7,459.1 65.7,460.8 65.7,462.5 65.7,464.2 65.7,465.9 65.7,467.6 65.7,469.4 65.7,471.1 65.7,472.8 65.7,474.5 65.7,476.2 65.7,477.9 65.7,479.6 65.8,481.3 65.8,483.0 66.0,484.7 66.1,486.5 66.3,488.1 66.5,489.8 66.8,491.5 67.1,493.2 67.5,494.9 67.8,496.6 68.3,498.2 68.7,499.9 69.2,501.5 69.7,503.1 70.3,504.7 70.9,506.4 71.5,507.9 72.2,509.5 72.9,511.1 73.6,512.6 74.4,514.1 75.2,515.6 76.1,517.1 76.9,518.6 77.9,520.1 78.8,521.5 79.8,522.9 80.8,524.3 81.8,525.6 82.9,527.0 83.9,528.3 85.1,529.6 86.2,530.9 87.4,532.1 88.6,533.3 89.8,534.5 91.1,535.7 92.4,536.8 93.7,537.9 95.0,539.0 96.4,540.0 97.7,541.0 99.1,542.0 100.6,543.0 102.0,543.9 103.5,544.8 104.9,545.6 106.4,546.5 108.0,547.2 109.5,548.0 111.1,548.7 112.6,549.4 114.2,550.0 115.8,550.7 117.4,551.2 119.0,551.8 120.7,552.3 122.3,552.8 124.0,553.2 125.6,553.6 127.3,553.9 129.0,554.3 130.7,554.6 132.4,554.8 134.1,555.0 135.8,555.2 137.5,555.3 139.2,555.4 140.9,555.5 142.6,555.5" fill="none" stroke="#bbbbbb" stroke-width="8.11534388819944" stroke-opacity="0.9" stroke-linejoin="round"/>
<polyline points="142.6,555.5 142.7,555.5 142.9,555.5 143.1,555.5 143.4,555.5 143.7,555.5 144.0,555.5 144.3,555.5 144.6,555.5 145.0,555.5 145.3,555.5 145.7,555.5 146.1,555.5 146.5,555.5 146.9,555.5 147.3,555.5 147.7,555.5 148.2,555.5 148.6,555.5 149.1,555.5 149.6,555.5 150.1,555.5 150.6,555.5 151.1,555.5 151.6,555.5 152.0,555.5 152.5,555.5 153.0,555.5 153.5,555.5 154.0,555.5 154.5,555.5 155.0,555.5 155.5,555.5 156.0,555.5 156.5,555.5 157.0,555.5 157.4,555.5 157.9,555.5 158.4,555.5 158.9,555.5 159.4,555.5 160.0,555.5 160.6,555.5 161.2,555.4 161.8,555.4 162.4,555.4 163.1,555.4 163.7,555.4 164.4,555.4 165.2,555.4 165.9,555.4 166.6,555.4 167.4,555.4 168.2,555.4 169.0,555.4 169.7,555.3 170.6,555.3 171.4,555.3 172.2,555.3 173.0,555.3 173.9,555.3 174.7,555.3 175.6,555.3 176.5,555.3 177.3,555.3 178.2,555.2 179.0,555.2 179.9,555.2 180.7,555.2 181.6,555.2 182.5,555.2 183.4,555.2 184.3,555.2 185.2,555.2 186.1,555.2 187.1,555.2 188.1,555.2 189.1,555.2 190.1,555.2 191.0,555.2 192.0,555.2 193.0,555.2 193.9,555.2 194.9,555.2 195.8,555.2 196.7,555.2 197.7,555.2 198.5,555.2 199.4,555.2 200.2,555.2 201.1,555.2 202.0,555.2 202.8,555.2 203.7,555.2 204.5,555.2 205.3,555.2 206.0,555.2 206.8,555.2 207.5,555.2 208.3,555.2 209.0,555.2 209.7,555.2 210.4,555.2 211.2,555.2 212.0,555.2 212.8,555.2 213.6,555.2 214.4,555.2 215.3,555.2 216.1,555.2 217.0,555.2 217.9,555.2 218.8,555.2 219.7,555.2 220.5,555.2 221.4,555.2 222.3,555.2 223.2,555.2 224.0,555.2 224.9,555.2 225.8,555.2 226.6,555.2 227.4,555.2 228.2,555.2 229.1,555.2 229.9,555.2 230.7,555.2 231.5,555.2 232.3,555.2 233.1,555.2 233.9,555.2 234.7,555.2 235.5,555.2 236.4,555.2 237.3,555.2 238.1,555.2 239.0,555.2 239.8,555.1 240.6,555.1 241.5,555.1 242.3,555.1 243.2,555.1 244.1,555.1 244.9,555.1 245.8,555.1 246.7,555.1 247.7,555.1 248.6,555.1 249.5,555.1 250.4,555.1 251.3,555.1 252.1,555.0 253.0,555.0 253.8,555.0 254.6,555.0 255.4,555.0 256.2,555.0 257.1,555.0 257.9,555.0 258.7,555.0 259.6,555.0 260.4,555.0 261.2,555.0 262.0,555.0 262.8,555.0 263.6,555.0 264.4,555.0 265.3,555.0 266.1,555.0 267.0,555.0 267.8,555.0 268.8,555.0 269.7,555.0 270.6,555.0 271.6,555.0 272.5,555.0 273.4,555.0 274.3,555.0 275.1,555.0 275.9,555.0 276.8,555.0 277.7,555.0 278.5,555.0 279.4,555.0 280.2,555.0 281.0,555.0 281.9,555.0 282.8,555.0 283.6,555.0 284.4,555.0 285.2,555.0 286.0,555.0 286.8,555.0 287.7,555.0 288.5,555.0 289.3,555.0 290.1,555.0 290.8,555.0 291.6,555.0 292.4,555.0 293.2,555.0 294.0,555.0 294.8,555.0 295.7,555.0 296.5,555.0 297.4,555.1 298.3,555.1 299.1,555.1 299.9,555.1 300.7,555.1 301.5,555.1 302.3,555.1 303.1,555.1 303.9,555.1 304.7,555.1 305.5,555.1 306.3,555.1 307.1,555.1 308.0,555.1 308.8,555.2 309.6,555.2 310.4,555.2 311.3,555.2 312.1,555.2 313.0,555.2 313.8,555.2 314.5,555.2 315.4,555.2 316.2,555.2 317.0,555.2 317.8,555.2 318.6,555.2 319.4,555.2 320.2,555.2 321.0,555.2 321.8,555.2 322.6,555.2 323.5,555.2 324.3,555.2 325.2,555.2 326.1,555.2 327.0,555.2 327.9,555.2 328.8,555.2 329.7,555.2 330.6,555.2 331.5,555.3 332.4,555.3 333.3,555.3 334.1,555.3 335.0,555.3 335.9,555.3 336.7,555.3 337.5,555.3 338.3,555.3 339.1,555.3 339.8,555.3 340.6,555.3 341.4,555.3 342.3,555.4 343.1,555.4 343.9,555.4 344.8,555.4 345.6,555.4 346.4,555.4 347.2,555.4 347.9,555.4 348.7,555.4 349.5,555.4 350.3,555.4 351.1,555.5 351.9,555.5 352.7,555.5 353.6,555.5 354.4,555.5 355.3,555.5 356.1,555.5 356.9,555.5 357.8,555.5 358.6,555.5 359.5,555.5 360.3,555.5 361.1,555.5 361.9,555.5 362.7,555.5 363.5,555.5 364.3,555.5 365.0,555.6 365.8,555.6 366.5,555.6 367.2,555.6 367.8,555.6 368.5,555.6 369.2,555.6 370.0,555.6 370.7,555.6 371.5,555.6 372.3,555.6 373.1,555.6 373.8,555.6 374.5,555.6 375.3,555.6 376.1,555.6 376.8,555.6 377.6,555.6 378.4,555.6 379.3,555.6 380.2,555.6 381.1,555.6 382.0,555.6 382.8,555.6 383.7,555.6 384.5,555.6 385.4,555.6 386.3,555.6 387.2,555.6 388.0,555.6 388.9,555.6 389.7,555.6 390.6,555.6 391.6,555.6 392.5,555.6 393.4,555.6 394.4,555.6 395.3,555.6 396.2,555.6 397.1,555.6 398.0,555.6 398.9,555.6 399.8,555.6 400.7,555.6 401.5,555.6 402.4,555.6 403.2,555.6 404.0,555.7 404.8,555.7 405.6,555.7 406.4,555.7 407.2,555.7 408.0,555.7 408.8,555.7 409.7,555.7 410.5,555.7 411.3,555.7 412.2,555.7 413.1,555.7 413.9,555.7 414.8,555.7 415.7,555.7 416.6,555.7 417.5,555.7 418.4,555.7 419.4,555.7 420.3,555.7 421.2,555.7 422.0,555.7 422.9,555.7 423.8,555.7 424.7,555.7 425.7,555.7 426.6,555.7 427.5,555.7 428.4,555.7 429.4,555.7 430.3,555.7 431.2,555.7 432.1,555.7 433.0,555.7 433.9,555.7 434.7,555.7 435.6,555.7 436.5,555.7 437.4,555.7 438.3,555.7 439.2,555.7 440.0,555.7 440.8,555.7 441.6,555.7 442.4,555.7 443.1,555.7 443.9,555.7 444.6,555.7 445.4,555.7 446.1,555.7 446.8,555.7 447.5,555.7 448.3,555.7 449.1,555.7 449.9,555.7 450.7,555.7 451.5,555.7 452.3,555.7 453.1,555.7 454.0,555.7 454.8,555.7 455.6,555.6 456.5,555.6 457.4,555.6 458.2,555.6 459.1,555.6 459.9,555.6 460.7,555.6 461.5,555.6 462.3,555.6 463.1,555.6 464.0,555.6 464.8,555.6 465.6,555.6 466.4,555.6 467.2,555.6 468.0,555.6 468.9,555.6 469.7,555.6 470.5,555.6 471.3,555.6 472.1,555.5 473.0,555.5 473.9,555.5 474.7,555.5 475.6,555.5 476.5,555.5 477.3,555.5 478.2,555.5 479.0,555.5 479.8,555.5 480.6,555.5 481.5,555.5 482.3,555.5 483.1,555.5 483.9,555.5 484.8,555.5 485.6,555.5 486.5,555.5 487.3,555.5 488.2,555.5 489.0,555.5 489.8,555.5 490.6,555.5 491.5,555.5 492.3,555.5 493.2,555.5 494.0,555.5 494.9,555.5 495.8,555.5 496.7,555.5 497.6,555.5 498.5,555.5 499.4,555.5 500.4,555.5 501.3,555.5 502.2,555.5 503.0,555.5 503.9,555.5 504.7,555.5 505.6,555.5 506.4,555.5 507.2,555.5 508.0,555.5 508.8,555.5 509.6,555.5 510.3,555.4 511.1,555.4 511.9,555.4 512.7,555.4 513.5,555.4 514.3,555.4 515.1,555.4 516.0,555.4 516.8,555.4 517.7,555.4 518.6,555.4 519.5,555.4 520.4,555.4 521.3,555.4 522.2,555.4 523.1,555.4 524.1,555.4 525.0,555.4 525.9,555.4 526.8,555.4 527.6,555.4 528.5,555.4 529.4,555.4 530.3,555.4 531.3,555.4 532.2,555.4 533.2,555.4 534.2,555.4 535.1,555.4 536.1,555.4 537.0,555.4 538.0,555.4 539.0,555.3 540.0,555.3 541.0,555.3 542.0,555.3 543.0,555.3 544.0,555.3 544.9,555.3 545.9,555.3 546.8,555.3 547.8,555.3 548.8,555.3 549.8,555.3 550.8,555.3 551.7,555.3 552.6,555.3 553.5,555.3 554.4,555.3 555.3,555.3 556.3,555.3 557.2,555.3 558.1,555.4 559.0,555.4 559.9,555.4 560.8,555.4 561.7,555.4 562.6,555.4 563.4,555.4 564.3,555.4 565.2,555.4 566.1,555.4 566.9,555.4 567.7,555.4 568.5,555.4 569.3,555.4 570.1,555.4 570.9,555.5 571.7,555.5 572.5,555.5 573.3,555.5 574.0,555.5 574.8,555.5 575.5,555.5 576.2,555.5 576.8,555.5 577.5,555.5 578.2,555.5 578.8,555.5 579.5,555.5 580.2,555.5 580.9,555.5 581.6,555.5 582.4,555.5 583.1,555.6 583.8,555.6 584.5,555.6 585.2,555.6 585.8,555.6 586.5,555.6 587.1,555.6 587.8,555.6 588.4,555.6 589.1,555.6 589.7,555.6 590.5,555.6 591.2,555.6 592.0,555.6 592.8,555.6 593.6,555.6 594.5,555.6 595.3,555.6 596.1,555.6 596.9,555.6 597.8,555.6 598.6,555.6 599.4,555.6 600.2,555.6 601.0,555.6 601.8,555.6 602.7,555.7 603.4,555.7 604.2,555.7 605.0,555.7 605.8,555.7 606.6,555.7 607.3,555.7 608.1,555.7 608.9,555.7 609.6,555.7 610.3,555.7 611.0,555.7 611.7,555.7 612.4,555.7 613.1,555.8 613.9,555.8 614.6,555.8 615.4,555.8 616.2,555.8 617.1,555.8 617.9,555.8 618.7,555.8 619.4,555.8 620.2,555.8 620.9,555.8 621.7,555.9 622.5,555.9 623.2,555.9 624.0,555.9 624.7,555.9 625.4,555.9 626.2,555.9 627.0,555.9 627.8,555.9 628.6,555.9 629.4,555.9 630.2,555.9 631.0,555.9 631.8,555.9 632.5,555.9 633.3,555.9 634.1,555.9 634.9,555.9 635.7,555.9 636.5,555.9 637.2,555.9 638.0,555.9 638.8,555.9 639.6,555.9 640.4,555.9 641.2,555.9 642.0,555.9 642.8,555.9 643.7,555.9 644.5,555.9 645.4,555.9 646.3,555.9 647.2,555.9 648.1,555.9 649.0,555.9 649.9,555.9 650.7,555.9 651.6,555.9 652.4,555.9 653.2,555.9 654.0,555.9 654.8,555.9 655.6,555.9 656.4,555.9 657.2,555.9 657.9,555.9 658.7,555.9 659.5,555.9 660.3,555.9 661.1,555.9 662.0,555.9 662.8,555.9 663.6,555.9 664.4,555.9 665.2,555.9 665.9,555.9 666.7,555.9 667.5,555.9 668.3,555.9 669.1,555.9 669.9,555.9 670.6,555.9 671.4,555.9 672.2,555.9 672.9,555.9 673.7,555.8 674.5,555.8 675.3,555.8 676.0,555.8 676.8,555.8 677.6,555.8 678.4,555.8 679.1,555.8 679.9,555.8 680.8,555.8 681.6,555.8 682.4,555.8 683.1,555.8 683.8,555.8 684.6,555.8 685.4,555.8 686.1,555.7 686.9,555.7 687.8,555.7 688.6,555.7 689.4,555.7 690.2,555.7 691.0,555.7 691.7,555.7 692.5,555.7 693.3,555.7 694.1,555.7 694.9,555.7 695.7,555.7 696.6,555.7 697.4,555.7 698.3,555.7 699.1,555.7 699.9,555.7 700.7,555.7 701.5,555.7 702.3,555.7 703.0,555.7 703.7,555.7 704.5,555.7 705.3,555.7 706.1,555.7 707.0,555.7 707.8,555.7 708.7,555.7 709.6,555.7 710.5,555.7 711.4,555.7 712.3,555.7 713.2,555.7 714.1,555.7 715.0,555.7 715.9,555.7 716.7,555.8 717.6,555.8 718.5,555.8 719.3,555.8 720.1,555.8 720.9,555.8 721.8,555.8 722.7,555.8 723.5,555.8 724.4,555.8 725.2,555.8 726.0,555.8 726.9,555.8 727.8,555.8 728.6,555.8 729.5,555.7 730.3,555.7 731.1,555.7 732.0,555.7 732.8,555.7 733.7,555.7 734.6,555.7 735.4,555.7 736.3,555.7 737.2,555.7 738.1,555.7 739.0,555.7 739.8,555.7 740.7,555.7 741.6,555.7 742.5,555.6 743.3,555.6 744.2,555.6 745.1,555.6 746.0,555.6 746.9,555.5 747.8,555.5 748.7,555.5 749.6,555.4 750.6,555.4 751.5,555.3 752.4,555.3 753.3,555.2 754.2,555.2 755.1,555.1 756.0,555.0 756.9,555.0 757.7,554.9 758.5,554.8 759.3,554.7 760.1,554.6 760.9,554.5 761.7,554.4 762.6,554.3 763.5,554.2 764.3,554.1 765.2,553.9 766.1,553.8 767.0,553.6 767.9,553.5 768.9,553.3 769.8,553.1 770.7,552.9 771.5,552.7 772.4,552.5 773.3,552.3 774.2,552.1 775.1,551.9 775.9,551.6 776.9,551.4 777.8,551.1 778.7,550.8 779.6,550.6 780.4,550.3 781.3,550.0 782.2,549.7 783.2,549.3 784.1,549.0 785.0,548.6 785.9,548.3 786.8,547.9 787.7,547.5 788.6,547.1 789.4,546.7 790.3,546.3 791.1,545.9 792.0,545.5 792.8,545.1 793.7,544.6 794.5,544.2 795.3,543.7 796.2,543.2 797.0,542.7 797.9,542.2 798.7,541.7 799.6,541.1 800.4,540.5 801.2,540.0 802.0,539.4 802.9,538.8 803.7,538.2 804.5,537.6 805.3,537.0 806.1,536.4 806.9,535.7 807.7,535.0 808.4,534.3 809.2,533.7 809.9,533.0 810.6,532.4 811.2,531.7 811.9,531.1 812.6,530.4 813.2,529.7 813.9,529.0 814.5,528.3 815.2,527.5 815.8,526.8 816.4,526.1 817.1,525.3 817.7,524.5 818.3,523.8 818.8,523.0 819.4,522.3 819.9,521.6 820.4,520.8 820.9,520.1 821.4,519.3 821.9,518.5 822.4,517.7 822.9,516.9 823.4,516.1 823.9,515.3 824.3,514.5 824.7,513.6 825.2,512.8 825.6,512.1 825.9,511.3 826.3,510.5 826.7,509.8 827.0,509.0 827.3,508.2 827.7,507.4 828.0,506.6 828.3,505.8 828.6,504.9 828.9,504.1 829.3,503.2 829.5,502.4 829.8,501.5 830.1,500.6 830.4,499.8 830.6,499.0 830.8,498.2 831.1,497.4 831.3,496.6 831.5,495.8 831.7,495.0 831.9,494.2 832.1,493.4 832.2,492.5 832.4,491.8 832.6,491.0 832.8,490.1 832.9,489.3 833.1,488.4 833.2,487.5 833.4,486.6 833.6,485.7 833.7,484.8 833.9,483.8 834.0,482.9 834.1,482.0 834.3,481.1 834.4,480.2 834.5,479.4 834.6,478.6 834.7,477.7 834.8,476.8 834.9,475.9 835.0,475.0 835.0,474.1 835.1,473.3 835.2,472.4 835.2,471.5 835.3,470.6 835.4,469.7 835.4,468.9 835.4,468.1 835.5,467.2 835.5,466.4 835.6,465.6 835.6,464.8 835.6,464.1 835.7,463.3 835.7,462.5 835.7,461.7 835.7,460.9 835.8,460.1 835.8,459.2 835.8,458.4 835.8,457.6 835.8,456.8 835.9,455.9 835.9,455.1 835.9,454.3 835.9,453.5 835.9,452.7 835.9,451.9 835.9,451.2 835.9,450.4 835.9,449.7 835.9,448.9 835.9,448.1 835.9,447.3 835.9,446.5 835.9,445.7 835.9,444.9 835.9,444.1 835.9,443.3 835.9,442.4 835.9,441.6 835.9,440.8 835.9,440.0 835.8,439.1 835.8,438.3 835.8,437.4 835.8,436.6 835.8,435.8 835.8,434.9 835.8,434.1 835.8,433.3 835.7,432.5 835.7,431.7 835.7,430.9 835.7,430.1 835.7,429.4 835.7,428.7 835.6,428.0 835.6,427.3 835.6,426.5 835.6,425.8 835.6,425.1 835.6,424.3 835.5,423.6 835.5,422.9 835.5,422.2 835.5,421.5 835.5,420.8 835.4,420.1 835.4,419.4 835.4,418.8 835.4,418.1 835.4,417.5 835.4,416.9 835.4,416.3 835.3,415.7 835.3,415.0 835.3,414.4 835.3,413.7 835.3,413.0 835.3,412.2 835.2,411.5 835.2,410.7 835.2,410.0 835.2,409.2 835.2,408.4 835.2,407.5 835.1,406.7 835.1,405.8 835.1,404.9 835.1,404.0 835.0,403.1 835.0,402.2 835.0,401.4 835.0,400.5 835.0,399.6 834.9,398.8 834.9,397.9 834.9,397.1 834.9,396.2 834.9,395.4 834.8,394.5 834.8,393.7 834.8,392.9 834.8,392.0 834.8,391.1 834.7,390.3 834.7,389.5 834.7,388.6 834.7,387.7 834.7,386.9 834.7,386.0 834.7,385.0 834.6,384.1 834.6,383.2 834.6,382.3 834.6,381.4 834.6,380.6 834.6,379.7 834.6,378.8 834.6,377.9 834.6,377.1 834.6,376.2 834.6,375.3 834.6,374.4 834.6,373.5 834.5,372.6 834.5,371.8 834.5,371.0 834.5,370.2 834.5,369.3 834.5,368.5 834.5,367.7 834.5,366.9 834.5,366.1 834.5,365.3 834.5,364.5 834.5,363.7 834.5,362.9 834.5,362.2 834.5,361.4 834.5,360.7 834.5,360.0 834.4,359.2 834.4,358.5 834.4,357.8 834.4,357.1 834.4,356.4 834.4,355.7 834.4,355.0 834.4,354.3 834.4,353.5 834.4,352.8 834.4,352.1 834.4,351.4 834.4,350.8 834.4,350.1 834.4,349.4 834.4,348.8 834.4,348.1 834.4,347.3 834.4,346.6 834.4,345.9 834.4,345.2 834.4,344.4 834.4,343.6 834.5,342.8 834.5,342.0 834.5,341.2 834.5,340.3 834.5,339.4 834.5,338.6 834.5,337.7 834.5,336.9 834.5,336.0 834.5,335.2 834.5,334.3 834.5,333.4 834.5,332.5 834.5,331.6 834.5,330.6 834.5,329.7 834.5,328.8 834.5,328.0 834.5,327.1 834.5,326.3 834.5,325.5 834.5,324.7 834.5,323.9 834.5,323.1 834.5,322.3 834.5,321.5 834.5,320.6 834.5,319.8 834.5,318.9 834.5,318.1 834.5,317.3 834.5,316.4 834.5,315.6 834.5,314.8 834.5,313.9 834.5,313.1 834.5,312.3 834.5,311.5 834.5,310.8 834.5,310.0 834.6,309.3 834.6,308.5 834.6,307.7 834.6,307.0 834.6,306.3 834.6,305.5 834.6,304.8 834.6,304.1 834.6,303.4 834.6,302.7 834.6,301.9 834.6,301.2 834.6,300.4 834.6,299.7 834.6,299.0 834.6,298.2 834.6,297.4 834.7,296.7 834.7,295.9 834.7,295.0 834.7,294.2 834.7,293.3 834.7,292.4 834.7,291.5 834.7,290.7 834.7,289.8 834.7,289.0 834.7,288.1 834.7,287.3 834.7,286.4 834.8,285.5 834.8,284.7 834.8,283.8 834.8,283.0 834.8,282.2 834.8,281.4 834.8,280.7 834.9,279.9 834.9,279.2 834.9,278.5 834.9,277.8 834.9,277.2 834.9,276.5 834.9,275.8 834.9,275.1 834.9,274.4 835.0,273.7 835.0,273.1 835.0,272.5 835.0,271.9 835.0,271.2 835.0,270.5 835.0,269.8 835.0,269.1 835.0,268.5 835.0,267.8 835.0,267.2 835.0,266.5 835.0,265.9 835.1,265.2 835.1,264.5 835.1,263.7 835.1,263.0 835.1,262.2 835.1,261.4 835.1,260.6 835.1,259.7 835.1,258.9 835.2,258.0 835.2,257.1 835.2,256.2 835.2,255.3 835.2,254.4 835.2,253.5 835.2,252.7 835.2,251.8 835.2,250.9 835.2,249.9 835.2,249.0 835.2,248.2 835.2,247.3 835.2,246.4 835.2,245.5 835.2,244.7 835.2,243.8 835.2,243.0 835.2,242.3 835.2,241.5 835.2,240.7 835.2,239.9 835.1,239.2 835.1,238.4 835.1,237.7 835.1,236.9 835.1,236.1 835.1,235.4 835.1,234.6 835.1,233.9 835.1,233.3 835.1,232.6 835.0,231.9 835.0,231.2 835.0,230.5 835.0,229.8 835.0,229.2 835.0,228.6 834.9,228.0 834.9,227.4 834.9,226.8 834.9,226.2 834.9,225.5 834.9,224.9 834.8,224.2 834.8,223.6 834.8,223.0 834.8,222.4 834.8,221.8 834.8,221.2 834.8,220.6 834.7,219.9 834.7,219.2 834.7,218.5 834.7,217.8 834.7,217.0 834.7,216.2 834.7,215.5 834.7,214.7 834.7,214.0 834.6,213.3 834.6,212.6 834.6,211.9 834.6,211.3 834.6,210.6 834.6,210.0 834.6,209.3 834.6,208.6 834.6,207.9 834.6,207.2 834.6,206.5 834.6,205.8 834.6,205.0 834.6,204.2 834.6,203.5 834.6,202.7 834.5,201.9 834.5,201.0 834.5,200.2 834.5,199.4 834.5,198.6 834.5,197.7 834.5,196.9 834.5,196.1 834.5,195.2 834.5,194.4 834.5,193.6 834.5,192.7 834.5,191.8 834.5,191.0 834.5,190.2 834.5,189.4 834.5,188.6 834.5,187.8 834.5,187.0 834.5,186.2 834.5,185.5 834.5,184.7 834.5,183.9 834.5,183.1 834.5,182.4 834.5,181.5 834.5,180.7 834.5,179.9 834.5,179.0 834.5,178.2 834.4,177.4 834.4,176.5 834.4,175.7 834.4,174.9 834.4,174.1 834.3,173.3 834.3,172.6 834.3,171.8 834.3,171.1 834.2,170.4 834.2,169.7 834.1,169.0 834.1,168.3 834.1,167.7 834.0,167.1 834.0,166.4 833.9,165.8 833.9,165.2 833.8,164.6 833.7,164.0 833.7,163.4 833.6,162.8 833.5,162.2 833.5,161.6 833.4,161.0 833.3,160.4 833.2,159.8 833.1,159.2 833.0,158.6 832.9,158.1 832.8,157.5 832.7,156.9 832.6,156.2 832.5,155.6 832.4,155.0 832.3,154.4 832.1,153.7 832.0,153.1 831.9,152.5 831.7,151.9 831.6,151.3 831.5,150.7 831.3,150.1 831.2,149.5 831.0,148.8 830.8,148.1 830.7,147.5 830.5,146.8 830.3,146.1 830.1,145.4 829.9,144.7 829.7,144.0 829.5,143.2 829.2,142.5 829.0,141.7 828.7,140.9 828.5,140.2 828.2,139.4 827.9,138.6 827.7,137.8 827.4,137.0 827.1,136.1 826.7,135.3 826.4,134.5 826.1,133.7 825.8,132.9 825.4,132.1 825.1,131.3 824.8,130.5 824.4,129.8 824.0,129.0 823.7,128.3 823.3,127.5 822.9,126.8 822.5,126.0 822.1,125.3 821.8,124.6 821.3,123.9 820.9,123.2 820.5,122.5 820.1,121.8 819.6,121.1 819.1,120.4 818.6,119.7 818.1,118.9 817.6,118.2 817.2,117.6 816.7,116.9 816.2,116.3 815.8,115.7 815.3,115.1 814.8,114.5 814.3,113.9 813.7,113.2 813.2,112.6 812.6,112.0 812.0,111.4 811.4,110.7 810.8,110.1 810.2,109.5 809.6,108.9 809.1,108.4 808.5,107.8 807.9,107.3 807.3,106.7 806.7,106.2 806.1,105.7 805.5,105.2 804.9,104.7 804.3,104.2 803.7,103.7 803.1,103.2 802.5,102.8 801.8,102.3 801.2,101.8 800.5,101.3 799.8,100.9 799.1,100.4 798.4,99.9 797.7,99.4 797.0,99.0 796.3,98.6 795.6,98.1 794.9,97.7 794.2,97.3 793.5,96.9 792.8,96.6 792.1,96.2 791.5,95.8 790.8,95.5 790.1,95.1 789.4,94.8 788.6,94.4 787.9,94.0 787.1,93.7 786.4,93.4 785.6,93.1 784.9,92.7 784.1,92.5 783.4,92.2 782.7,91.9 782.0,91.7 781.4,91.4 780.7,91.2 780.1,91.0 779.4,90.8 778.8,90.5 778.1,90.3 777.4,90.1 776.8,89.9 776.1,89.8 775.5,89.6 774.9,89.4 774.3,89.2 773.7,89.1 773.0,88.9 772.3,88.8 771.7,88.6 771.0,88.4 770.3,88.3 769.6,88.1 768.9,88.0 768.3,87.9 767.6,87.7 767.0,87.6 766.3,87.4 765.6,87.3 764.8,87.2 764.1,87.1 763.3,87.0 762.6,86.8 761.8,86.7 760.9,86.6 760.0,86.5 759.2,86.4 758.2,86.3 757.3,86.1 756.4,86.0 755.5,85.9 754.7,85.9 753.8,85.8 753.0,85.7 752.1,85.6 751.3,85.5 750.5,85.5 749.6,85.4 748.8,85.3 747.9,85.2 747.0,85.2 746.1,85.1 745.2,85.1 744.3,85.0 743.4,85.0 742.5,84.9 741.7,84.9 740.8,84.8 740.0,84.8 739.2,84.8 738.4,84.7 737.6,84.7 736.8,84.7 736.0,84.7 735.1,84.6 734.3,84.6 733.4,84.6 732.6,84.6 731.7,84.6 730.9,84.5 730.1,84.5 729.3,84.5 728.4,84.5 727.6,84.5 726.7,84.5 725.8,84.5 725.0,84.5 724.2,84.5 723.4,84.5 722.6,84.5 721.8,84.5 721.0,84.5 720.3,84.5 719.5,84.5 718.8,84.5 718.0,84.5 717.3,84.5 716.7,84.5 716.0,84.6 715.3,84.6 714.6,84.6 714.0,84.6 713.3,84.6 712.6,84.6 711.9,84.7 711.2,84.7 710.6,84.7 709.9,84.7 709.3,84.7 708.6,84.8 708.0,84.8 707.4,84.8 706.8,84.8 706.1,84.8 705.5,84.8 704.9,84.9 704.2,84.9 703.6,84.9 703.0,84.9 702.4,85.0 701.8,85.0 701.1,85.0 700.5,85.0 699.8,85.0 699.1,85.1 698.4,85.1 697.6,85.1 696.9,85.1 696.2,85.2 695.4,85.2 694.6,85.2 693.9,85.2 693.1,85.3 692.4,85.3 691.6,85.3 690.8,85.3 689.9,85.4 689.1,85.4 688.3,85.4 687.4,85.4 686.6,85.5 685.7,85.5 684.8,85.5 684.0,85.5 683.1,85.5 682.2,85.6 681.4,85.6 680.6,85.6 679.7,85.6 678.9,85.6 678.1,85.6 677.3,85.7 676.4,85.7 675.6,85.7 674.7,85.7 673.9,85.7 673.0,85.7 672.2,85.7 671.4,85.8 670.5,85.8 669.6,85.8 668.7,85.8 667.8,85.8 666.9,85.8 666.1,85.8 665.2,85.8 664.4,85.8 663.5,85.8 662.7,85.8 661.8,85.8 660.9,85.8 660.0,85.8 659.1,85.8 658.2,85.8 657.2,85.8 656.3,85.8 655.4,85.8 654.5,85.8 653.6,85.8 652.7,85.8 651.9,85.8 651.0,85.8 650.1,85.8 649.3,85.8 648.4,85.8 647.6,85.8 646.8,85.8 646.0,85.8 645.1,85.8 644.3,85.8 643.4,85.8 642.5,85.8 641.6,85.8 640.7,85.8 639.8,85.8 639.0,85.8 638.1,85.8 637.1,85.8 636.2,85.8 635.2,85.8 634.3,85.8 633.4,85.8 632.4,85.8 631.4,85.8 630.5,85.8 629.6,85.8 628.7,85.8 627.8,85.8 626.9,85.8 625.9,85.8 625.0,85.8 624.0,85.8 623.1,85.8 622.2,85.8 621.2,85.8 620.3,85.8 619.4,85.8 618.5,85.8 617.6,85.8 616.6,85.8 615.7,85.8 614.8,85.8 614.0,85.8 613.1,85.8 612.2,85.8 611.2,85.8 610.3,85.8 609.4,85.8 608.6,85.8 607.7,85.8 606.9,85.8 606.0,85.8 605.2,85.7 604.3,85.7 603.3,85.7 602.5,85.7 601.6,85.7 600.7,85.7 599.8,85.7 599.0,85.7 598.1,85.7 597.3,85.7 596.5,85.7 595.7,85.7 594.9,85.7 594.2,85.7 593.5,85.7 592.7,85.7 592.0,85.7 591.2,85.7 590.4,85.7 589.6,85.7 588.9,85.7 588.1,85.7 587.4,85.7 586.6,85.7 585.8,85.7 585.1,85.7 584.3,85.7 583.5,85.7 582.8,85.6 582.0,85.6 581.3,85.6 580.6,85.6 579.9,85.6 579.2,85.6 578.4,85.6 577.7,85.6 577.0,85.6 576.2,85.6 575.5,85.6 574.8,85.6 574.0,85.6 573.3,85.5 572.6,85.5 571.9,85.5 571.2,85.5 570.5,85.5 569.8,85.5 569.0,85.5 568.3,85.5 567.5,85.5 566.8,85.5 566.0,85.5 565.2,85.5 564.4,85.5 563.7,85.5 562.9,85.5 562.1,85.4 561.3,85.4 560.5,85.4 559.7,85.4 558.9,85.4 558.1,85.4 557.3,85.4 556.4,85.4 555.6,85.4 554.7,85.4 553.9,85.4 553.0,85.4 552.3,85.4 551.5,85.4 550.6,85.4 549.8,85.4 549.0,85.4 548.2,85.4 547.4,85.4 546.6,85.4 545.8,85.4 545.0,85.4 544.2,85.4 543.4,85.4 542.6,85.4 541.7,85.4 540.9,85.4 540.1,85.5 539.3,85.5 538.5,85.5 537.8,85.5 537.0,85.5 536.3,85.5 535.5,85.5 534.8,85.5 534.0,85.5 533.3,85.5 532.5,85.5 531.6,85.5 530.8,85.6 529.9,85.6 529.0,85.6 528.1,85.6 527.2,85.6 526.3,85.6 525.4,85.6 524.5,85.6 523.6,85.6 522.6,85.6 521.7,85.6 520.7,85.6 519.7,85.7 518.7,85.7 517.6,85.7 516.6,85.7 515.6,85.7 514.7,85.7 513.7,85.7 512.8,85.7 511.9,85.7 511.0,85.7 510.1,85.7 509.2,85.7 508.4,85.7 507.5,85.7 506.7,85.7 505.9,85.7 505.0,85.7 504.2,85.7 503.4,85.7 502.6,85.7 501.8,85.7 500.9,85.7 500.1,85.7 499.4,85.7 498.6,85.7 497.8,85.7 497.1,85.7 496.3,85.7 495.6,85.7 494.9,85.7 494.1,85.7 493.3,85.7 492.6,85.7 491.9,85.7 491.1,85.7 490.3,85.7 489.6,85.7 488.8,85.7 488.0,85.7 487.1,85.7 486.3,85.7 485.5,85.7 484.7,85.7 483.8,85.7 482.9,85.7 482.0,85.7 481.2,85.7 480.3,85.7 479.4,85.7 478.5,85.7 477.6,85.7 476.7,85.7 475.8,85.7 474.9,85.7 474.0,85.7 473.0,85.7 472.1,85.7 471.3,85.7 470.4,85.7 469.6,85.7 468.7,85.7 467.9,85.7 467.1,85.7 466.2,85.7 465.4,85.7 464.6,85.7 463.7,85.7 462.8,85.7 461.9,85.7 461.1,85.7 460.2,85.7 459.4,85.7 458.5,85.7 457.7,85.7 456.9,85.7 456.1,85.7 455.3,85.7 454.5,85.7 453.8,85.7 453.1,85.7 452.3,85.7 451.6,85.7 450.9,85.7 450.1,85.7 449.4,85.7 448.7,85.7 447.9,85.7 447.2,85.7 446.5,85.7 445.7,85.7 444.9,85.7 444.1,85.7 443.3,85.7 442.5,85.7 441.8,85.7 441.0,85.7 440.2,85.8 439.4,85.8 438.7,85.8 438.0,85.8 437.2,85.8 436.4,85.8 435.7,85.8 434.9,85.8 434.2,85.8 433.6,85.8 432.9,85.8 432.2,85.8 431.6,85.8 430.9,85.8 430.3,85.7 429.7,85.7 429.1,85.7 428.6,85.7 428.0,85.7 427.5,85.7 426.9,85.7 426.4,85.7 425.8,85.7 425.2,85.7 424.6,85.7 424.0,85.7 423.4,85.7 422.8,85.7 422.2,85.7 421.6,85.7 421.0,85.6 420.4,85.6 419.8,85.6 419.2,85.6 418.6,85.6 417.9,85.6 417.3,85.6 416.7,85.6 416.1,85.6 415.5,85.6 414.9,85.6 414.3,85.6 413.8,85.6 413.2,85.6 412.6,85.6 412.0,85.6 411.4,85.6 410.8,85.6 410.2,85.6 409.5,85.6 408.9,85.6 408.3,85.6 407.6,85.6 406.9,85.6 406.2,85.6 405.5,85.6 404.8,85.6 404.1,85.6 403.4,85.6 402.7,85.6 402.1,85.6 401.4,85.6 400.7,85.6 399.9,85.6 399.1,85.6 398.4,85.6 397.6,85.6 396.8,85.6 396.0,85.6 395.2,85.6 394.4,85.6 393.7,85.6 392.9,85.6 392.1,85.6 391.3,85.6 390.5,85.6 389.6,85.6 388.7,85.6 387.8,85.6 386.9,85.6 386.0,85.6 385.1,85.6 384.1,85.6 383.2,85.6 382.3,85.6 381.3,85.6 380.4,85.6 379.5,85.6 378.6,85.6 377.7,85.6 376.8,85.6 375.9,85.6 375.0,85.6 374.1,85.6 373.2,85.6 372.3,85.6 371.4,85.6 370.6,85.6 369.6,85.6 368.7,85.6 367.8,85.6 366.9,85.6 366.0,85.6 365.1,85.6 364.2,85.6 363.3,85.6 362.4,85.6 361.5,85.6 360.7,85.6 359.8,85.6 358.9,85.6 358.0,85.6 357.1,85.6 356.2,85.6 355.4,85.6 354.5,85.6 353.7,85.6 352.8,85.6 352.0,85.6 351.2,85.6 350.4,85.6 349.6,85.6 348.7,85.6 347.9,85.6 347.1,85.7 346.3,85.7 345.5,85.7 344.7,85.7 343.9,85.7 343.1,85.7 342.4,85.7 341.6,85.7 340.8,85.7 340.1,85.7 339.3,85.7 338.4,85.7 337.6,85.7 336.7,85.7 335.8,85.7 334.9,85.7 334.1,85.7 333.2,85.7 332.4,85.7 331.5,85.7 330.6,85.8 329.7,85.8 328.8,85.8 327.9,85.8 327.1,85.8 326.2,85.8 325.4,85.8 324.5,85.8 323.7,85.8 322.9,85.8 322.1,85.8 321.3,85.8 320.5,85.8 319.7,85.8 318.9,85.8 318.2,85.8 317.5,85.8 316.8,85.8 316.0,85.8 315.3,85.8 314.6,85.8 313.9,85.8 313.1,85.8 312.4,85.8 311.7,85.8 310.9,85.8 310.2,85.8 309.5,85.8 308.8,85.8 308.1,85.8 307.4,85.8 306.7,85.8 305.9,85.8 305.2,85.8 304.4,85.9 303.6,85.9 302.8,85.9 302.1,85.9 301.3,85.9 300.6,85.9 299.9,85.9 299.2,85.9 298.5,85.9 297.8,85.9 297.1,85.9 296.5,85.9 295.8,85.9 295.1,85.9 294.4,85.9 293.7,85.9 292.9,85.9 292.1,85.9 291.3,85.9 290.5,85.9 289.7,85.9 288.9,85.9 288.1,85.9 287.3,85.9 286.6,85.8 285.8,85.8 285.0,85.8 284.1,85.8 283.3,85.8 282.5,85.8 281.6,85.8 280.8,85.8 279.9,85.8 279.1,85.8 278.2,85.7 277.3,85.7 276.4,85.7 275.5,85.7 274.6,85.7 273.8,85.7 272.9,85.7 272.0,85.7 271.1,85.7 270.2,85.7 269.4,85.7 268.5,85.7 267.7,85.7 266.9,85.7 266.2,85.6 265.4,85.6 264.7,85.6 264.0,85.6 263.3,85.6 262.5,85.6 261.8,85.6 261.1,85.6 260.3,85.6 259.6,85.6 258.8,85.6 258.0,85.6 257.3,85.6 256.5,85.6 255.6,85.6 254.8,85.7 254.1,85.7 253.3,85.7 252.6,85.7 251.8,85.7 251.1,85.7 250.3,85.7 249.6,85.7 248.8,85.7 248.0,85.7 247.3,85.7 246.5,85.7 245.7,85.7 244.9,85.7 244.2,85.7 243.4,85.7 242.6,85.7 241.9,85.7 241.1,85.7 240.2,85.7 239.4,85.7 238.6,85.7 237.8,85.7 237.0,85.7 236.2,85.7 235.5,85.7 234.7,85.7 234.0,85.7 233.3,85.7 232.6,85.7 231.9,85.7 231.2,85.7 230.5,85.7 229.8,85.7 229.1,85.7 228.4,85.7 227.8,85.7 227.1,85.7 226.4,85.7 225.7,85.7 225.1,85.7 224.4,85.7 223.6,85.7 222.9,85.7 222.2,85.7 221.4,85.7 220.7,85.7 220.0,85.7 219.3,85.7 218.5,85.7 217.8,85.7 217.1,85.7 216.4,85.7 215.7,85.7 215.1,85.7 214.5,85.7 213.8,85.7 213.2,85.7 212.6,85.7 212.0,85.7 211.4,85.7 210.8,85.7 210.3,85.7 209.7,85.7 209.2,85.7 208.6,85.7 208.0,85.7 207.4,85.7 206.7,85.7 206.1,85.7 205.5,85.7 204.9,85.8 204.3,85.8 203.7,85.8 203.1,85.8 202.5,85.8 201.8,85.8 201.2,85.8 200.6,85.8 200.0,85.8 199.4,85.8 198.8,85.8 198.2,85.8 197.7,85.8 197.1,85.8 196.6,85.8 196.0,85.8 195.4,85.8 194.8,85.8 194.2,85.8 193.6,85.8 193.0,85.8 192.4,85.8 191.8,85.8 191.2,85.8 190.6,85.8 189.9,85.8 189.3,85.8 188.6,85.8 187.9,85.8 187.3,85.8 186.7,85.9 186.0,85.9 185.4,85.9 184.7,85.9 184.0,85.9 183.3,85.9 182.7,85.9 182.0,85.9 181.3,85.9 180.6,85.9 179.9,85.9 179.2,85.9 178.5,85.9 177.8,85.9 177.2,85.9 176.5,85.9 175.7,85.9 175.0,85.9 174.3,85.9 173.6,85.9 173.0,85.9 172.3,85.9 171.7,85.9 171.0,85.9 170.4,85.9 169.7,85.9 169.1,86.0 168.4,86.0 167.7,86.0 167.1,86.0 166.4,86.0 165.7,86.0 165.0,86.0 164.4,86.0 163.8,86.0 163.1,86.0 162.5,86.0 161.9,86.0 161.2,86.0 160.6,86.1 159.9,86.1 159.3,86.1 158.7,86.1 158.1,86.1 157.5,86.1 157.0,86.2 156.4,86.2 155.9,86.2 155.3,86.2 154.8,86.2 154.3,86.3 153.8,86.3 153.2,86.3 152.7,86.3 152.1,86.4 151.6,86.4 151.0,86.4 150.4,86.5 149.9,86.5 149.3,86.6 148.7,86.6 148.1,86.6 147.5,86.7 146.9,86.7 146.3,86.8 145.7,86.8 145.1,86.9 144.4,87.0 143.7,87.0 143.1,87.1 142.4,87.2 141.7,87.2 141.1,87.3 140.4,87.4 139.8,87.5 139.1,87.6 138.5,87.6 137.8,87.7 137.2,87.8 136.5,87.9 135.9,88.0 135.2,88.1 134.6,88.2 134.0,88.4 133.4,88.5 132.8,88.6 132.2,88.7 131.6,88.8 131.0,89.0 130.4,89.1 129.8,89.2 129.1,89.4 128.5,89.5 127.9,89.7 127.2,89.8 126.5,90.0 125.9,90.2 125.2,90.4 124.5,90.6 123.8,90.7 123.1,91.0 122.4,91.2 121.6,91.4 120.8,91.7 120.1,91.9 119.3,92.2 118.5,92.4 117.7,92.7 116.8,93.0 116.0,93.3 115.2,93.6 114.4,94.0 113.6,94.3 112.7,94.6 111.9,95.0 111.1,95.3 110.3,95.7 109.5,96.1 108.7,96.5 107.9,96.9 107.1,97.3 106.3,97.7 105.5,98.1 104.8,98.5 104.0,98.9 103.3,99.3 102.5,99.8 101.7,100.3 100.9,100.8 100.1,101.3 99.4,101.8 98.6,102.3 97.9,102.8 97.2,103.3 96.4,103.8 95.7,104.4 95.0,104.9 94.3,105.5 93.6,106.1 92.8,106.6 92.1,107.2 91.4,107.8 90.8,108.4 90.1,109.1 89.4,109.7 88.7,110.3 88.1,110.9 87.5,111.5 86.9,112.2 86.3,112.8 85.7,113.4 85.1,114.1 84.5,114.7 84.0,115.4 83.4,116.0 82.9,116.7 82.3,117.4 81.8,118.1 81.2,118.8 80.7,119.5 80.1,120.3 79.6,121.0 79.1,121.8 78.6,122.5 78.1,123.3 77.6,124.1 77.2,124.8 76.7,125.6 76.2,126.4 75.8,127.2 75.4,128.0 75.0,128.8 74.6,129.5 74.2,130.2 73.9,131.0 73.5,131.8 73.2,132.6 72.8,133.4 72.5,134.2 72.2,135.0 71.8,135.8 71.5,136.7 71.2,137.5 70.9,138.4 70.6,139.3 70.3,140.2 70.1,141.1 69.8,142.0 69.5,142.9 69.2,143.8 69.0,144.7 68.8,145.6 68.6,146.4 68.3,147.3 68.1,148.2 68.0,149.0 67.8,149.9 67.6,150.7 67.4,151.5 67.3,152.4 67.1,153.3 67.0,154.2 66.8,155.1 66.7,156.0 66.5,156.8 66.4,157.7 66.3,158.6 66.2,159.5 66.1,160.5 66.0,161.4 65.9,162.3 65.8,163.2 65.7,164.0 65.6,164.9 65.5,165.8 65.4,166.7 65.4,167.5 65.3,168.3 65.2,169.1 65.2,169.8 65.1,170.6 65.1,171.3 65.0,172.1 65.0,172.8 64.9,173.7 64.9,174.5 64.8,175.3 64.8,176.0 64.7,176.8 64.7,177.5 64.7,178.3 64.6,179.0 64.6,179.7 64.6,180.4 64.6,181.0 64.5,181.7 64.5,182.3 64.5,183.0 64.5,183.7 64.4,184.3 64.4,185.0 64.4,185.7 64.4,186.3 64.4,187.0 64.3,187.6 64.3,188.2 64.3,188.9 64.3,189.5 64.3,190.1 64.3,190.8 64.3,191.4 64.2,192.0 64.2,192.6 64.2,193.2 64.2,193.7 64.2,194.3 64.2,194.9 64.2,195.5 64.1,196.1 64.1,196.8 64.1,197.4 64.1,198.0 64.1,198.6 64.1,199.3 64.1,200.0 64.1,200.7 64.1,201.4 64.1,202.2 64.1,202.9 64.1,203.6 64.1,204.3 64.1,204.9 64.1,205.6 64.1,206.3 64.1,207.1 64.1,207.8 64.1,208.6 64.1,209.3 64.1,210.1 64.1,210.9 64.1,211.6 64.2,212.3 64.2,213.0 64.2,213.8 64.2,214.6 64.2,215.3 64.2,216.1 64.2,216.9 64.3,217.7 64.3,218.4 64.3,219.2 64.3,219.9 64.3,220.7 64.3,221.5 64.4,222.4 64.4,223.2 64.4,224.1 64.4,224.9 64.4,225.7 64.5,226.6 64.5,227.4 64.5,228.2 64.5,229.0 64.5,229.8 64.6,230.7 64.6,231.5 64.6,232.3 64.6,233.1 64.6,233.8 64.6,234.6 64.7,235.3 64.7,236.1 64.7,236.9 64.7,237.7 64.7,238.6 64.7,239.4 64.8,240.2 64.8,240.9 64.8,241.7 64.8,242.5 64.8,243.2 64.8,244.0 64.8,244.7 64.9,245.5 64.9,246.3 64.9,247.0 64.9,247.8 64.9,248.5 64.9,249.2 64.9,249.9 64.9,250.6 65.0,251.3 65.0,252.0 65.0,252.8 65.0,253.5 65.0,254.2 65.0,254.9 65.0,255.6 65.0,256.2 65.0,256.9 65.0,257.6 65.0,258.3 65.0,259.0 65.0,259.7 65.0,260.5 65.0,261.3 65.0,262.1 65.1,262.9 65.1,263.7 65.1,264.5 65.1,265.4 65.1,266.2 65.1,267.2 65.1,268.1 65.1,269.0 65.1,270.0 65.1,271.0 65.1,272.0 65.1,273.0 65.2,274.1 65.2,275.1 65.2,276.1 65.2,277.1 65.2,278.1 65.2,279.1 65.2,280.0 65.2,280.9 65.2,281.8 65.2,282.7 65.2,283.6 65.2,284.5 65.3,285.4 65.3,286.3 65.3,287.2 65.3,288.2 65.3,289.1 65.3,290.0 65.3,290.9 65.3,291.8 65.3,292.7 65.4,293.5 65.4,294.4 65.4,295.3 65.4,296.1 65.4,297.0 65.4,297.8 65.5,298.6 65.5,299.4 65.5,300.3 65.5,301.1 65.5,301.9 65.6,302.8 65.6,303.6 65.6,304.5 65.7,305.3 65.7,306.2 65.7,307.0 65.7,307.7 65.8,308.5 65.8,309.4 65.8,310.2 65.9,311.0 65.9,311.9 65.9,312.7 66.0,313.5 66.0,314.3 66.0,315.1 66.1,316.0 66.1,316.8 66.1,317.6 66.2,318.3 66.2,319.1 66.2,319.8 66.3,320.6 66.3,321.3 66.3,322.1 66.4,323.0 66.4,323.8 66.4,324.6 66.5,325.5 66.5,326.4 66.6,327.2 66.6,328.1 66.6,328.9 66.7,329.8 66.7,330.7 66.7,331.6 66.8,332.5 66.8,333.3 66.8,334.2 66.8,335.0 66.8,335.7 66.9,336.6 66.9,337.4 66.9,338.2 66.9,339.0 66.9,339.8 66.9,340.5 66.9,341.2 66.9,342.0 66.9,342.8 67.0,343.6 67.0,344.3 67.0,345.1 67.0,345.9 67.0,346.7 67.0,347.5 66.9,348.3 66.9,349.1 66.9,350.0 66.9,350.9 66.9,351.8 66.9,352.7 66.9,353.7 66.9,354.6 66.9,355.5 66.9,356.3 66.9,357.2 66.9,358.0 66.9,358.8 66.9,359.7 66.9,360.5 66.8,361.4 66.8,362.3 66.8,363.1 66.8,363.9 66.8,364.8 66.8,365.6 66.8,366.4 66.8,367.2 66.8,368.0 66.7,368.9 66.7,369.7 66.7,370.5 66.7,371.3 66.7,372.0 66.7,372.8 66.7,373.6 66.7,374.4 66.7,375.2 66.7,376.0 66.7,376.9 66.7,377.7 66.7,378.4 66.6,379.2 66.6,380.0 66.6,380.7 66.6,381.4 66.6,382.1 66.6,382.8 66.6,383.5 66.6,384.3 66.6,385.0 66.6,385.8 66.6,386.6 66.6,387.4 66.6,388.2 66.6,388.9 66.6,389.7 66.6,390.4 66.6,391.2 66.6,391.9 66.6,392.6 66.6,393.3 66.6,394.1 66.6,394.8 66.6,395.6 66.6,396.3 66.6,397.1 66.6,397.9 66.6,398.6 66.6,399.5 66.5,400.3 66.5,401.2 66.5,402.0 66.5,402.8 66.5,403.6 66.5,404.4 66.5,405.2 66.5,406.0 66.4,406.7 66.4,407.5 66.4,408.3 66.4,409.1 66.4,409.8 66.4,410.6 66.4,411.3 66.4,412.1 66.4,412.9 66.4,413.7 66.4,414.4 66.4,415.2 66.3,415.9 66.3,416.7 66.3,417.5 66.3,418.2 66.3,419.0 66.3,419.7 66.3,420.4 66.3,421.2 66.3,421.8 66.3,422.5 66.3,423.2 66.3,423.8 66.3,424.5 66.3,425.1 66.3,425.8 66.3,426.6 66.3,427.3 66.2,428.1 66.2,428.9 66.2,429.7 66.2,430.5 66.2,431.3 66.2,432.1 66.2,433.0 66.2,433.8 66.2,434.6 66.2,435.3 66.2,436.1 66.2,436.9 66.2,437.7 66.2,438.5 66.2,439.3 66.2,440.1 66.1,440.8 66.1,441.6 66.1,442.4 66.1,443.1 66.1,443.9 66.1,444.6 66.1,445.3 66.1,446.1 66.1,446.8 66.1,447.4 66.1,448.1 66.1,448.8 66.1,449.5 66.1,450.2 66.1,450.9 66.0,451.5 66.0,452.2 66.0,452.9 66.0,453.6 66.0,454.2 66.0,454.9 66.0,455.6 66.0,456.3 66.0,457.0 66.0,457.7 66.0,458.4 66.0,459.1 66.0,459.8 66.0,460.6 66.0,461.3 66.0,462.1 66.0,462.9 66.0,463.7 66.0,464.5 66.0,465.2 66.0,466.0 66.1,466.7 66.1,467.4 66.1,468.2 66.1,469.0 66.2,469.8 66.2,470.6 66.2,471.3 66.3,472.1 66.3,473.0 66.4,473.8 66.4,474.6 66.5,475.5 66.6,476.3 66.6,477.2 66.7,478.0 66.8,478.9 66.9,479.8 67.0,480.6 67.1,481.5 67.2,482.4 67.3,483.2 67.4,484.0 67.5,484.8 67.6,485.6 67.7,486.4 67.9,487.2 68.0,488.0 68.2,488.7 68.3,489.5 68.4,490.2 68.6,490.9 68.7,491.6 68.9,492.4 69.1,493.1 69.2,493.8 69.4,494.4 69.6,495.1 69.7,495.7 69.9,496.4 70.1,497.1 70.3,497.8 70.5,498.6 70.8,499.3 71.0,500.1 71.3,500.9 71.5,501.6 71.8,502.4 72.1,503.2 72.4,504.0 72.7,504.8 73.0,505.5 73.3,506.3 73.6,507.2 74.0,508.0 74.3,508.8 74.7,509.6 75.0,510.3 75.4,511.1 75.7,511.8 76.1,512.6 76.5,513.3 76.8,514.0 77.2,514.8 77.6,515.5 78.0,516.1 78.4,516.8 78.8,517.5 79.2,518.1 79.6,518.7 80.0,519.4 80.4,520.0 80.8,520.7 81.3,521.3 81.7,521.9 82.1,522.5 82.6,523.1 83.0,523.7 83.5,524.4 84.0,525.0 84.4,525.6 84.9,526.1 85.4,526.7 85.9,527.3 86.3,527.8 86.8,528.4 87.3,528.9 87.8,529.4 88.2,529.9 88.7,530.4 89.2,531.0 89.8,531.5 90.3,532.0 90.8,532.5 91.4,533.1 92.0,533.6 92.6,534.1 93.2,534.7 93.8,535.2 94.3,535.6 94.9,536.1 95.5,536.6 96.0,537.0 96.6,537.5 97.1,537.9 97.7,538.3 98.3,538.8 98.9,539.2 99.5,539.6 100.1,540.1 100.8,540.5 101.4,540.9 102.0,541.3 102.6,541.7 103.2,542.1 103.9,542.5 104.5,542.9 105.2,543.3 105.8,543.7 106.5,544.0 107.2,544.4 107.8,544.8 108.5,545.1 109.1,545.4 109.8,545.7 110.4,546.1" fill="none" stroke="#1f6feb" stroke-width="2.0" stroke-opacity="1.0" stroke-linejoin="round"/>
<circle cx="142.6" cy="555.5" r="6" fill="green"/>
<rect x="105.4" y="541.1" width="10" height="10" fill="red"/>
</g></svg>