<svg xmlns="http://www.w3.org/2000/svg" width="900" height="660" viewBox="0 0 900 660" font-family="sans-serif">
<rect width="900" height="660" fill="white"/>
<text x="10" y="22" font-size="16">speed=250 Kp=0.019 Kd=5.0  ->  lap complete  (max wobble 0.5cm, t=2.6s)</text>
<g transform="translate(0,30)">
<polyline points="226.4,559.7 227.1,559.7 227.8,559.7 228.6,559.7 229.3,559.7 230.1,559.7 230.8,559.7 231.6,559.7 232.3,559.7 233.1,559.7 233.8,559.7 234.6,559.7 235.3,559.7 236.1,559.7 236.8,559.7 237.5,559.7 238.3,559.7 239.0,559.7 239.8,559.7 240.5,559.7 241.3,559.7 242.0,559.7 242.8,559.7 243.5,559.7 244.3,559.7 245.0,559.7 245.8,559.7 246.5,559.7 247.2,559.7 248.0,559.7 248.7,559.7 249.5,559.7 250.2,559.7 251.0,559.7 251.7,559.7 252.5,559.7 253.2,559.7 254.0,559.7 254.7,559.7 255.5,559.7 256.2,559.7 256.9,559.7 257.7,559.7 258.4,559.7 259.2,559.7 259.9,559.7 260.7,559.7 261.4,559.7 262.2,559.7 262.9,559.7 263.7,559.7 264.4,559.7 265.2,559.7 265.9,559.7 266.6,559.7 267.4,559.7 268.1,559.7 268.9,559.7 269.6,559.7 270.4,559.7 271.1,559.7 271.9,559.7 272.6,559.7 273.4,559.7 274.1,559.7 274.9,559.7 275.6,559.7 276.3,559.7 277.1,559.7 277.8,559.7 278.6,559.7 279.3,559.7 280.1,559.7 280.8,559.7 281.6,559.7 282.3,559.7 283.1,559.7 283.8,559.7 284.6,559.7 285.3,559.7 286.0,559.7 286.8,559.7 287.5,559.7 288.3,559.7 289.0,559.7 289.8,559.7 290.5,559.7 291.3,559.7 292.0,559.7 292.8,559.7 293.5,559.7 294.3,559.7 295.0,559.7 295.7,559.7 296.5,559.7 297.2,559.7 298.0,559.7 298.7,559.7 299.5,559.7 300.2,559.7 301.0,559.7 301.7,559.7 302.5,559.7 303.2,559.7 304.0,559.7 304.7,559.7 305.5,559.7 306.2,559.7 306.9,559.7 307.7,559.7 308.4,559.7 309.2,559.7 309.9,559.7 310.7,559.7 311.4,559.7 312.2,559.7 312.9,559.7 313.7,559.7 314.4,559.7 315.2,559.7 315.9,559.7 316.6,559.7 317.4,559.7 318.1,559.7 318.9,559.7 319.6,559.7 320.4,559.7 321.1,559.7 321.9,559.7 322.6,559.7 323.4,559.7 324.1,559.7 324.9,559.7 325.6,559.7 326.3,559.7 327.1,559.7 327.8,559.7 328.6,559.7 329.3,559.7 330.1,559.7 330.8,559.7 331.6,559.7 332.3,559.7 333.1,559.7 333.8,559.7 334.6,559.7 335.3,559.7 336.0,559.7 336.8,559.7 337.5,559.7 338.3,559.7 339.0,559.7 339.8,559.7 340.5,559.7 341.3,559.7 342.0,559.7 342.8,559.7 343.5,559.7 344.3,559.7 345.0,559.7 345.7,559.7 346.5,559.7 347.2,559.7 348.0,559.7 348.7,559.7 349.5,559.7 350.2,559.7 351.0,559.7 351.7,559.7 352.5,559.7 353.2,559.7 354.0,559.7 354.7,559.7 355.4,559.7 356.2,559.7 356.9,559.7 357.7,559.7 358.4,559.7 359.2,559.7 359.9,559.7 360.7,559.7 361.4,559.7 362.2,559.7 362.9,559.7 363.7,559.7 364.4,559.7 365.1,559.7 365.9,559.7 366.6,559.7 367.4,559.7 368.1,559.7 368.9,559.7 369.6,559.7 370.4,559.7 371.1,559.7 371.9,559.7 372.6,559.7 373.4,559.7 374.1,559.7 374.8,559.7 375.6,559.7 376.3,559.7 377.1,559.7 377.8,559.7 378.6,559.7 379.3,559.7 380.1,559.7 380.8,559.7 381.6,559.7 382.3,559.7 383.1,559.7 383.8,559.7 384.5,559.7 385.3,559.7 386.0,559.7 386.8,559.7 387.5,559.7 388.3,559.7 389.0,559.7 389.8,559.7 390.5,559.7 391.3,559.7 392.0,559.7 392.8,559.7 393.5,559.7 394.2,559.7 395.0,559.7 395.7,559.7 396.5,559.7 397.2,559.7 398.0,559.7 398.7,559.7 399.5,559.7 400.2,559.7 401.0,559.7 401.7,559.7 402.5,559.7 403.2,559.7 404.0,559.7 404.7,559.7 405.4,559.7 406.2,559.7 406.9,559.7 407.7,559.7 408.4,559.7 409.2,559.7 409.9,559.7 410.7,559.7 411.4,559.7 412.2,559.7 412.9,559.7 413.7,559.7 414.4,559.7 415.1,559.7 415.9,559.7 416.6,559.7 417.4,559.7 418.1,559.7 418.9,559.7 419.6,559.7 420.4,559.7 421.1,559.7 421.9,559.7 422.6,559.7 423.4,559.7 424.1,559.7 424.8,559.7 425.6,559.7 426.3,559.7 427.1,559.7 427.8,559.7 428.6,559.7 429.3,559.7 430.1,559.7 430.8,559.7 431.6,559.7 432.3,559.7 433.1,559.7 433.8,559.7 434.5,559.7 435.3,559.7 436.0,559.7 436.8,559.7 437.5,559.7 438.3,559.7 439.0,559.7 439.8,559.7 440.5,559.7 441.3,559.7 442.0,559.7 442.8,559.7 443.5,559.7 444.2,559.7 445.0,559.7 445.7,559.7 446.5,559.7 447.2,559.7 448.0,559.7 448.7,559.7 449.5,559.7 450.2,559.7 451.0,559.7 451.7,559.7 452.5,559.7 453.2,559.7 453.9,559.7 454.7,559.7 455.4,559.7 456.2,559.7 456.9,559.7 457.7,559.7 458.4,559.7 459.2,559.7 459.9,559.7 460.7,559.7 461.4,559.7 462.2,559.7 462.9,559.7 463.6,559.7 464.4,559.7 465.1,559.7 465.9,559.7 466.6,559.7 467.4,559.7 468.1,559.7 468.9,559.7 469.6,559.7 470.4,559.7 471.1,559.7 471.9,559.7 472.6,559.7 473.3,559.7 474.1,559.7 474.8,559.7 475.6,559.7 476.3,559.7 477.1,559.7 477.8,559.7 478.6,559.7 479.3,559.7 480.1,559.7 480.8,559.7 481.6,559.7 482.3,559.7 483.0,559.7 483.8,559.7 484.5,559.7 485.3,559.7 486.0,559.7 486.8,559.7 487.5,559.7 488.3,559.7 489.0,559.7 489.8,559.7 490.5,559.7 491.3,559.7 492.0,559.7 492.7,559.7 493.5,559.7 494.2,559.7 495.0,559.7 495.7,559.7 496.5,559.7 497.2,559.7 498.0,559.7 498.7,559.7 499.5,559.7 500.2,559.7 501.0,559.7 501.7,559.7 502.5,559.7 503.2,559.7 503.9,559.7 504.7,559.7 505.4,559.7 506.2,559.7 506.9,559.7 507.7,559.7 508.4,559.7 509.2,559.7 509.9,559.7 510.7,559.7 511.4,559.7 512.2,559.7 512.9,559.7 513.6,559.7 514.4,559.7 515.1,559.7 515.9,559.7 516.6,559.7 517.4,559.7 518.1,559.7 518.9,559.7 519.6,559.7 520.4,559.7 521.1,559.7 521.9,559.7 522.6,559.7 523.3,559.7 524.1,559.7 524.8,559.7 525.6,559.7 526.3,559.7 527.1,559.7 527.8,559.7 528.6,559.7 529.3,559.7 530.1,559.7 530.8,559.7 531.6,559.7 532.3,559.7 533.0,559.7 533.8,559.7 534.5,559.7 535.3,559.7 536.0,559.7 536.8,559.7 537.5,559.7 538.3,559.7 539.0,559.7 539.8,559.7 540.5,559.7 541.3,559.7 542.0,559.7 542.7,559.7 543.5,559.7 544.2,559.7 545.0,559.7 545.7,559.7 546.5,559.7 547.2,559.7 548.0,559.7 548.7,559.7 549.5,559.7 550.2,559.7 551.0,559.7 551.7,559.7 552.4,559.7 553.2,559.7 553.9,559.7 554.7,559.7 555.4,559.7 556.2,559.7 556.9,559.7 557.7,559.7 558.4,559.7 559.2,559.7 559.9,559.7 560.7,559.7 561.4,559.7 562.1,559.7 562.9,559.7 563.6,559.7 564.4,559.7 565.1,559.7 565.9,559.7 566.6,559.7 567.4,559.7 568.1,559.7 568.9,559.7 569.6,559.7 570.4,559.7 571.1,559.7 571.8,559.7 572.6,559.7 573.3,559.7 574.1,559.7 574.8,559.7 575.6,559.7 576.3,559.7 577.1,559.7 577.8,559.7 578.6,559.7 579.3,559.7 580.1,559.7 580.8,559.7 581.5,559.7 582.3,559.7 583.0,559.7 583.8,559.7 584.5,559.7 585.3,559.7 586.0,559.7 586.8,559.7 587.5,559.7 588.3,559.7 589.0,559.7 589.8,559.7 590.5,559.7 591.2,559.7 592.0,559.7 592.7,559.7 593.5,559.7 594.2,559.7 595.0,559.7 595.7,559.7 596.5,559.7 597.2,559.7 598.0,559.7 598.7,559.7 599.5,559.7 600.2,559.7 601.0,559.7 601.7,559.7 602.4,559.7 603.2,559.7 603.9,559.7 604.7,559.7 605.4,559.7 606.2,559.7 606.9,559.7 607.7,559.7 608.4,559.7 609.2,559.7 609.9,559.7 610.7,559.7 611.4,559.7 612.1,559.7 612.9,559.7 613.6,559.7 614.4,559.7 615.1,559.7 615.9,559.7 616.6,559.7 617.4,559.7 618.1,559.7 618.9,559.7 619.6,559.7 620.4,559.7 621.1,559.7 621.8,559.7 622.6,559.7 623.3,559.7 624.1,559.7 624.8,559.7 625.6,559.7 626.3,559.7 627.1,559.7 627.8,559.7 628.6,559.7 629.3,559.7 630.1,559.7 630.8,559.7 631.5,559.7 632.3,559.7 633.0,559.7 633.8,559.7 634.5,559.7 635.3,559.7 636.0,559.7 636.8,559.7 637.5,559.7 638.3,559.7 639.0,559.7 639.8,559.7 640.5,559.7 641.2,559.7 642.0,559.7 642.7,559.7 643.5,559.7 644.2,559.7 645.0,559.7 645.7,559.7 646.5,559.7 647.2,559.7 648.0,559.7 648.7,559.7 649.5,559.7 650.2,559.7 650.9,559.7 651.7,559.7 652.4,559.7 653.2,559.7 653.9,559.7 654.7,559.7 655.4,559.7 656.2,559.7 656.9,559.7 657.7,559.7 658.4,559.7 659.2,559.7 659.9,559.7 660.6,559.7 661.4,559.7 662.1,559.7 662.9,559.7 663.6,559.7 664.4,559.7 665.1,559.7 665.9,559.7 666.6,559.7 667.4,559.7 668.1,559.7 668.9,559.7 669.6,559.7 670.3,559.7 671.1,559.7 671.8,559.7 672.6,559.7 673.3,559.7 674.1,559.7 674.8,559.7 675.6,559.7 676.3,559.6 677.1,559.6 677.8,559.6 678.6,559.6 679.3,559.6 680.0,559.5 680.8,559.5 681.5,559.5 682.3,559.4 683.0,559.4 683.8,559.4 684.5,559.3 685.3,559.3 686.0,559.2 686.8,559.2 687.5,559.1 688.2,559.0 689.0,559.0 689.7,558.9 690.5,558.8 691.2,558.8 692.0,558.7 692.7,558.6 693.4,558.5 694.2,558.4 694.9,558.3 695.7,558.2 696.4,558.1 697.1,558.0 697.9,557.9 698.6,557.8 699.4,557.7 700.1,557.6 700.8,557.5 701.6,557.3 702.3,557.2 703.0,557.1 703.8,557.0 704.5,556.8 705.2,556.7 706.0,556.5 706.7,556.4 707.4,556.3 708.2,556.1 708.9,555.9 709.6,555.8 710.3,555.6 711.1,555.5 711.8,555.3 712.5,555.1 713.3,555.0 714.0,554.8 714.7,554.6 715.4,554.4 716.1,554.2 716.9,554.0 717.6,553.8 718.3,553.6 719.0,553.4 719.7,553.2 720.5,553.0 721.2,552.8 721.9,552.6 722.6,552.4 723.3,552.2 724.0,552.0 724.7,551.7 725.5,551.5 726.2,551.3 726.9,551.0 727.6,550.8 728.3,550.6 729.0,550.3 729.7,550.1 730.4,549.8 731.1,549.6 731.8,549.3 732.5,549.1 733.2,548.8 733.9,548.5 734.6,548.3 735.3,548.0 736.0,547.7 736.7,547.4 737.4,547.1 738.1,546.9 738.7,546.6 739.4,546.3 740.1,546.0 740.8,545.7 741.5,545.4 742.2,545.1 742.9,544.8 743.5,544.5 744.2,544.2 744.9,543.9 745.6,543.5 746.2,543.2 746.9,542.9 747.6,542.6 748.2,542.2 748.9,541.9 749.6,541.6 750.2,541.2 750.9,540.9 751.6,540.5 752.2,540.2 752.9,539.8 753.5,539.5 754.2,539.1 754.9,538.8 755.5,538.4 756.2,538.0 756.8,537.7 757.5,537.3 758.1,536.9 758.7,536.6 759.4,536.2 760.0,535.8 760.7,535.4 761.3,535.0 761.9,534.6 762.6,534.2 763.2,533.8 763.8,533.4 764.5,533.0 765.1,532.6 765.7,532.2 766.3,531.8 767.0,531.4 767.6,531.0 768.2,530.6 768.8,530.2 769.4,529.7 770.0,529.3 770.7,528.9 771.3,528.4 771.9,528.0 772.5,527.6 773.1,527.1 773.7,526.7 774.3,526.2 774.9,525.8 775.5,525.3 776.1,524.9 776.7,524.4 777.2,524.0 777.8,523.5 778.4,523.0 779.0,522.6 779.6,522.1 780.2,521.6 780.7,521.2 781.3,520.7 781.9,520.2 782.4,519.7 783.0,519.2 783.6,518.8 784.1,518.3 784.7,517.8 785.3,517.3 785.8,516.8 786.4,516.3 786.9,515.8 787.5,515.3 788.0,514.8 788.6,514.3 789.1,513.8 789.7,513.2 790.2,512.7 790.7,512.2 791.3,511.7 791.8,511.2 792.3,510.6 792.8,510.1 793.4,509.6 793.9,509.0 794.4,508.5 794.9,508.0 795.4,507.4 796.0,506.9 796.5,506.3 797.0,505.8 797.5,505.2 798.0,504.7 798.5,504.1 799.0,503.6 799.5,503.0 800.0,502.5 800.5,501.9 801.0,501.3 801.4,500.8 801.9,500.2 802.4,499.6 802.9,499.1 803.4,498.5 803.8,497.9 804.3,497.3 804.8,496.7 805.2,496.2 805.7,495.6 806.2,495.0 806.6,494.4 807.1,493.8 807.5,493.2 808.0,492.6 808.4,492.0 808.9,491.4 809.3,490.8 809.7,490.2 810.2,489.6 810.6,489.0 811.0,488.4 811.5,487.8 811.9,487.2 812.3,486.5 812.7,485.9 813.1,485.3 813.6,484.7 814.0,484.1 814.4,483.4 814.8,482.8 815.2,482.2 815.6,481.6 816.0,480.9 816.4,480.3 816.8,479.7 817.2,479.0 817.6,478.4 817.9,477.7 818.3,477.1 818.7,476.5 819.1,475.8 819.4,475.2 819.8,474.5 820.2,473.9 820.5,473.2 820.9,472.6 821.3,471.9 821.6,471.3 822.0,470.6 822.3,469.9 822.7,469.3 823.0,468.6 823.3,467.9 823.7,467.3 824.0,466.6 824.3,465.9 824.7,465.3 825.0,464.6 825.3,463.9 825.6,463.3 826.0,462.6 826.3,461.9 826.6,461.2 826.9,460.5 827.2,459.9 827.5,459.2 827.8,458.5 828.1,457.8 828.4,457.1 828.7,456.4 828.9,455.7 829.2,455.1 829.5,454.4 829.8,453.7 830.1,453.0 830.3,452.3 830.6,451.6 830.9,450.9 831.1,450.2 831.4,449.5 831.6,448.8 831.9,448.1 832.1,447.4 832.4,446.7 832.6,446.0 832.9,445.3 833.1,444.6 833.3,443.8 833.6,443.1 833.8,442.4 834.0,441.7 834.2,441.0 834.4,440.3 834.7,439.6 834.9,438.9 835.1,438.1 835.3,437.4 835.5,436.7 835.7,436.0 835.9,435.3 836.1,434.5 836.2,433.8 836.4,433.1 836.6,432.4 836.8,431.6 837.0,430.9 837.1,430.2 837.3,429.5 837.5,428.7 837.6,428.0 837.8,427.3 837.9,426.6 838.1,425.8 838.3,425.1 838.4,424.4 838.5,423.6 838.7,422.9 838.8,422.2 838.9,421.4 839.1,420.7 839.2,420.0 839.3,419.2 839.4,418.5 839.6,417.7 839.7,417.0 839.8,416.3 839.9,415.5 840.0,414.8 840.1,414.1 840.2,413.3 840.3,412.6 840.4,411.8 840.5,411.1 840.6,410.3 840.6,409.6 840.7,408.9 840.8,408.1 840.9,407.4 840.9,406.6 841.0,405.9 841.0,405.1 841.1,404.4 841.2,403.7 841.2,402.9 841.3,402.2 841.3,401.4 841.3,400.7 841.4,399.9 841.4,399.2 841.4,398.4 841.5,397.7 841.5,397.0 841.5,396.2 841.5,395.5 841.5,394.7 841.6,394.0 841.6,393.2 841.6,392.5 841.6,391.7 841.6,391.0 841.6,390.2 841.6,389.5 841.5,388.7 841.5,388.0 841.5,387.3 841.5,386.5 841.5,385.8 841.4,385.0 841.4,384.3 841.4,383.5 841.3,382.8 841.3,382.0 841.2,381.3 841.2,380.5 841.1,379.8 841.1,379.1 841.0,378.3 841.0,377.6 840.9,376.8 840.8,376.1 840.8,375.3 840.7,374.6 840.6,373.9 840.5,373.1 840.4,372.4 840.3,371.6 840.3,370.9 840.2,370.2 840.1,369.4 840.0,368.7 839.9,367.9 839.7,367.2 839.6,366.5 839.5,365.7 839.4,365.0 839.3,364.2 839.2,363.5 839.0,362.8 838.9,362.0 838.8,361.3 838.6,360.6 838.5,359.8 838.3,359.1 838.2,358.4 838.0,357.6 837.9,356.9 837.7,356.2 837.6,355.5 837.4,354.7 837.2,354.0 837.1,353.3 836.9,352.6 836.7,351.8 836.5,351.1 836.4,350.4 836.2,349.7 836.0,348.9 835.8,348.2 835.6,347.5 835.4,346.8 835.2,346.1 835.0,345.3 834.8,344.6 834.6,343.9 834.4,343.2 834.1,342.5 833.9,341.8 833.7,341.1 833.5,340.3 833.2,339.6 833.0,338.9 832.8,338.2 832.5,337.5 832.3,336.8 832.0,336.1 831.8,335.4 831.5,334.7 831.3,334.0 831.0,333.3 830.8,332.6 830.5,331.9 830.2,331.2 829.9,330.5 829.7,329.8 829.4,329.1 829.1,328.4 828.8,327.7 828.5,327.1 828.3,326.4 828.0,325.7 827.7,325.0 827.4,324.3 827.1,323.6 826.8,322.9 826.4,322.3 826.1,321.6 825.8,320.9 825.5,320.2 825.2,319.6 824.9,318.9 824.5,318.2 824.2,317.5 823.9,316.9 823.5,316.2 823.2,315.5 822.9,314.9 822.5,314.2 822.2,313.6 821.8,312.9 821.5,312.2 821.1,311.6 820.8,310.9 820.4,310.3 820.0,309.6 819.7,309.0 819.3,308.3 818.9,307.7 818.5,307.0 818.2,306.4 817.8,305.8 817.4,305.1 817.0,304.5 816.6,303.8 816.2,303.2 815.8,302.6 815.4,301.9 815.0,301.3 814.6,300.7 814.2,300.1 813.8,299.4 813.4,298.8 813.0,298.2 812.6,297.6 812.1,297.0 811.7,296.3 811.3,295.7 810.9,295.1 810.4,294.5 810.0,293.9 809.6,293.3 809.1,292.7 808.7,292.1 808.2,291.5 807.8,290.9 807.3,290.3 806.9,289.7 806.4,289.1 806.0,288.5 805.5,288.0 805.0,287.4 804.6,286.8 804.1,286.2 803.6,285.6 803.2,285.0 802.7,284.5 802.2,283.9 801.7,283.3 801.2,282.8 800.8,282.2 800.3,281.6 799.8,281.1 799.3,280.5 798.8,280.0 798.3,279.4 797.8,278.8 797.3,278.3 796.8,277.7 796.3,277.2 795.8,276.7 795.2,276.1 794.7,275.6 794.2,275.0 793.7,274.5 793.2,274.0 792.6,273.4 792.1,272.9 791.6,272.4 791.1,271.9 790.5,271.4 790.0,270.8 789.4,270.3 788.9,269.8 788.4,269.3 787.8,268.8 787.3,268.3 786.7,267.8 786.2,267.3 785.6,266.8 785.0,266.3 784.5,265.8 783.9,265.3 783.4,264.8 782.8,264.3 782.2,263.8 781.7,263.4 781.1,262.9 780.5,262.4 779.9,261.9 779.3,261.5 778.8,261.0 778.2,260.5 777.6,260.1 777.0,259.6 776.4,259.1 775.8,258.7 775.2,258.2 774.6,257.8 774.0,257.3 773.4,256.9 772.8,256.5 772.2,256.0 771.6,255.6 771.0,255.1 770.4,254.7 769.8,254.3 769.2,253.9 768.6,253.4 768.0,253.0 767.3,252.6 766.7,252.2 766.1,251.8 765.5,251.4 764.9,251.0 764.2,250.5 763.6,250.2 763.0,249.8 762.3,249.4 761.7,249.0 761.1,248.6 760.4,248.2 759.8,247.8 759.1,247.4 758.5,247.0 757.9,246.7 757.2,246.3 756.6,245.9 755.9,245.6 755.3,245.2 754.6,244.8 753.9,244.5 753.3,244.1 752.6,243.8 752.0,243.4 751.3,243.1 750.7,242.7 750.0,242.4 749.3,242.1 748.7,241.7 748.0,241.4 747.3,241.1 746.6,240.7 746.0,240.4 745.3,240.1 744.6,239.8 743.9,239.5 743.3,239.2 742.6,238.8 741.9,238.5 741.2,238.2 740.5,237.9 739.9,237.6 739.2,237.4 738.5,237.1 737.8,236.8 737.1,236.5 736.4,236.2 735.7,235.9 735.0,235.7 734.3,235.4 733.6,235.1 732.9,234.9 732.2,234.6 731.5,234.3 730.8,234.1 730.1,233.8 729.4,233.6 728.7,233.3 728.0,233.1 727.3,232.9 726.6,232.6 725.9,232.4 725.2,232.2 724.5,231.9 723.8,231.7 723.0,231.5 722.3,231.3 721.6,231.1 720.9,230.8 720.2,230.6 719.5,230.4 718.8,230.2 718.0,230.0 717.3,229.8 716.6,229.6 715.9,229.5 715.1,229.3 714.4,229.1 713.7,228.9 713.0,228.7 712.2,228.6 711.5,228.4 710.8,228.2 710.1,228.1 709.3,227.9 708.6,227.7 707.9,227.6 707.1,227.4 706.4,227.3 705.7,227.1 704.9,227.0 704.2,226.9 703.5,226.7 702.7,226.6 702.0,226.5 701.3,226.4 700.5,226.2 699.8,226.1 699.1,226.0 698.3,225.9 697.6,225.8 696.8,225.7 696.1,225.6 695.4,225.5 694.6,225.4 693.9,225.3 693.1,225.2 692.4,225.1 691.7,225.0 690.9,225.0 690.2,224.9 689.4,224.8 688.7,224.8 687.9,224.7 687.2,224.6 686.5,224.6 685.7,224.5 685.0,224.5 684.2,224.4 683.5,224.4 682.7,224.3 682.0,224.3 681.2,224.3 680.5,224.2 679.8,224.2 679.0,224.2 678.3,224.2 677.5,224.1 676.8,224.1 676.0,224.1 675.3,224.1 674.5,224.1 673.8,224.1 673.0,224.1 672.3,224.1 671.5,224.1 670.8,224.1 670.1,224.1 669.3,224.1 668.6,224.1 667.8,224.1 667.1,224.1 666.3,224.1 665.6,224.1 664.8,224.1 664.1,224.1 663.3,224.1 662.6,224.1 661.8,224.1 661.1,224.1 660.4,224.1 659.6,224.1 658.9,224.1 658.1,224.1 657.4,224.1 656.6,224.1 655.9,224.1 655.1,224.1 654.4,224.1 653.6,224.1 652.9,224.1 652.1,224.1 651.4,224.1 650.7,224.1 649.9,224.1 649.2,224.1 648.4,224.1 647.7,224.1 646.9,224.1 646.2,224.1 645.4,224.1 644.7,224.1 643.9,224.1 643.2,224.1 642.4,224.1 641.7,224.1 641.0,224.1 640.2,224.1 639.5,224.1 638.7,224.1 638.0,224.1 637.2,224.1 636.5,224.1 635.7,224.1 635.0,224.1 634.2,224.1 633.5,224.1 632.7,224.1 632.0,224.1 631.3,224.1 630.5,224.1 629.8,224.1 629.0,224.1 628.3,224.1 627.5,224.1 626.8,224.1 626.0,224.1 625.3,224.1 624.5,224.1 623.8,224.1 623.0,224.1 622.3,224.1 621.6,224.1 620.8,224.1 620.1,224.1 619.3,224.1 618.6,224.1 617.8,224.1 617.1,224.1 616.3,224.1 615.6,224.1 614.8,224.1 614.1,224.1 613.3,224.1 612.6,224.1 611.9,224.1 611.1,224.1 610.4,224.1 609.6,224.1 608.9,224.1 608.1,224.1 607.4,224.1 606.6,224.1 605.9,224.1 605.1,224.1 604.4,224.1 603.6,224.1 602.9,224.1 602.2,224.1 601.4,224.1 600.7,224.1 599.9,224.1 599.2,224.1 598.4,224.1 597.7,224.1 596.9,224.1 596.2,224.1 595.4,224.1 594.7,224.1 593.9,224.1 593.2,224.1 592.5,224.1 591.7,224.1 591.0,224.1 590.2,224.1 589.5,224.1 588.7,224.1 588.0,224.1 587.2,224.1 586.5,224.1 585.7,224.1 585.0,224.1 584.2,224.1 583.5,224.1 582.7,224.1 582.0,224.1 581.3,224.1 580.5,224.1 579.8,224.1 579.0,224.1 578.3,224.1 577.5,224.1 576.8,224.1 576.0,224.1 575.3,224.1 574.5,224.1 573.8,224.1 573.0,224.1 572.3,224.1 571.6,224.1 570.8,224.1 570.1,224.1 569.3,224.1 568.6,224.1 567.8,224.1 567.1,224.1 566.3,224.1 565.6,224.1 564.8,224.1 564.1,224.1 563.3,224.1 562.6,224.1 561.9,224.1 561.1,224.1 560.4,224.1 559.6,224.1 558.9,224.1 558.1,224.1 557.4,224.1 556.6,224.1 555.9,224.1 555.1,224.1 554.4,224.1 553.6,224.1 552.9,224.1 552.2,224.1 551.4,224.1 550.7,224.1 549.9,224.1 549.2,224.1 548.4,224.1 547.7,224.1 546.9,224.1 546.2,224.1 545.4,224.1 544.7,224.1 543.9,224.1 543.2,224.1 542.5,224.1 541.7,224.1 541.0,224.1 540.2,224.1 539.5,224.1 538.7,224.1 538.0,224.1 537.2,224.1 536.5,224.1 535.7,224.1 535.0,224.1 534.2,224.1 533.5,224.1 532.8,224.1 532.0,224.1 531.3,224.1 530.5,224.1 529.8,224.1 529.0,224.1 528.3,224.1 527.5,224.1 526.8,224.1 526.0,224.1 525.3,224.1 524.5,224.1 523.8,224.1 523.1,224.1 522.3,224.1 521.6,224.1 520.8,224.1 520.1,224.1 519.3,224.1 518.6,224.1 517.8,224.1 517.1,224.1 516.3,224.1 515.6,224.1 514.8,224.1 514.1,224.1 513.4,224.1 512.6,224.1 511.9,224.1 511.1,224.1 510.4,224.1 509.6,224.1 508.9,224.1 508.1,224.1 507.4,224.1 506.6,224.1 505.9,224.1 505.1,224.1 504.4,224.1 503.7,224.1 502.9,224.1 502.2,224.1 501.4,224.1 500.7,224.1 499.9,224.1 499.2,224.1 498.4,224.1 497.7,224.1 496.9,224.1 496.2,224.1 495.4,224.1 494.7,224.1 494.0,224.1 493.2,224.1 492.5,224.1 491.7,224.1 491.0,224.1 490.2,224.1 489.5,224.1 488.7,224.1 488.0,224.1 487.2,224.1 486.5,224.1 485.7,224.1 485.0,224.1 484.2,224.1 483.5,224.1 482.8,224.1 482.0,224.1 481.3,224.1 480.5,224.1 479.8,224.1 479.0,224.1 478.3,224.1 477.5,224.1 476.8,224.1 476.0,224.1 475.3,224.1 474.5,224.1 473.8,224.1 473.1,224.1 472.3,224.1 471.6,224.1 470.8,224.1 470.1,224.1 469.3,224.1 468.6,224.1 467.8,224.1 467.1,224.1 466.3,224.1 465.6,224.1 464.8,224.1 464.1,224.1 463.4,224.1 462.6,224.1 461.9,224.1 461.1,224.1 460.4,224.1 459.6,224.1 458.9,224.1 458.1,224.1 457.4,224.1 456.6,224.1 455.9,224.1 455.1,224.1 454.4,224.1 453.7,224.1 452.9,224.1 452.2,224.1 451.4,224.1 450.7,224.1 449.9,224.1 449.2,224.1 448.4,224.1 447.7,224.1 446.9,224.1 446.2,224.1 445.4,224.1 444.7,224.1 444.0,224.1 443.2,224.1 442.5,224.1 441.7,224.1 441.0,224.1 440.2,224.1 439.5,224.1 438.7,224.1 438.0,224.1 437.2,224.1 436.5,224.1 435.7,224.1 435.0,224.1 434.3,224.1 433.5,224.1 432.8,224.1 432.0,224.1 431.3,224.1 430.5,224.1 429.8,224.1 429.0,224.1 428.3,224.1 427.5,224.1 426.8,224.1 426.0,224.1 425.3,224.1 424.6,224.1 423.8,224.1 423.1,224.1 422.3,224.1 421.6,224.1 420.8,224.1 420.1,224.1 419.3,224.1 418.6,224.1 417.8,224.1 417.1,224.1 416.3,224.1 415.6,224.1 414.9,224.1 414.1,224.1 413.4,224.1 412.6,224.1 411.9,224.1 411.1,224.1 410.4,224.1 409.6,224.1 408.9,224.1 408.1,224.1 407.4,224.1 406.6,224.1 405.9,224.1 405.2,224.1 404.4,224.1 403.7,224.1 402.9,224.1 402.2,224.1 401.4,224.1 400.7,224.1 399.9,224.1 399.2,224.1 398.4,224.1 397.7,224.1 396.9,224.1 396.2,224.1 395.5,224.1 394.7,224.1 394.0,224.1 393.2,224.1 392.5,224.1 391.7,224.1 391.0,224.1 390.2,224.1 389.5,224.1 388.7,224.1 388.0,224.1 387.2,224.1 386.5,224.1 385.7,224.1 385.0,224.1 384.3,224.1 383.5,224.1 382.8,224.1 382.0,224.1 381.3,224.1 380.5,224.1 379.8,224.1 379.0,224.1 378.3,224.1 377.5,224.1 376.8,224.1 376.0,224.1 375.3,224.1 374.6,224.1 373.8,224.1 373.1,224.1 372.3,224.1 371.6,224.1 370.8,224.1 370.1,224.1 369.3,224.1 368.6,224.1 367.8,224.1 367.1,224.1 366.3,224.1 365.6,224.1 364.9,224.1 364.1,224.1 363.4,224.1 362.6,224.1 361.9,224.1 361.1,224.1 360.4,224.1 359.6,224.1 358.9,224.1 358.1,224.1 357.4,224.1 356.6,224.1 355.9,224.1 355.2,224.1 354.4,224.1 353.7,224.1 352.9,224.1 352.2,224.1 351.4,224.1 350.7,224.1 349.9,224.1 349.2,224.1 348.4,224.1 347.7,224.1 346.9,224.1 346.2,224.1 345.5,224.1 344.7,224.1 344.0,224.1 343.2,224.1 342.5,224.1 341.7,224.1 341.0,224.1 340.2,224.1 339.5,224.1 338.7,224.1 338.0,224.1 337.2,224.1 336.5,224.1 335.8,224.1 335.0,224.1 334.3,224.1 333.5,224.1 332.8,224.1 332.0,224.1 331.3,224.1 330.5,224.1 329.8,224.1 329.0,224.1 328.3,224.1 327.5,224.1 326.8,224.1 326.1,224.1 325.3,224.1 324.6,224.1 323.8,224.1 323.1,224.1 322.3,224.1 321.6,224.1 320.8,224.1 320.1,224.1 319.3,224.1 318.6,224.1 317.8,224.1 317.1,224.1 316.4,224.1 315.6,224.1 314.9,224.1 314.1,224.1 313.4,224.1 312.6,224.1 311.9,224.1 311.1,224.1 310.4,224.1 309.6,224.1 308.9,224.1 308.1,224.1 307.4,224.1 306.7,224.1 305.9,224.1 305.2,224.1 304.4,224.1 303.7,224.1 302.9,224.1 302.2,224.1 301.4,224.1 300.7,224.1 299.9,224.1 299.2,224.1 298.4,224.1 297.7,224.1 297.0,224.1 296.2,224.1 295.5,224.1 294.7,224.1 294.0,224.1 293.2,224.1 292.5,224.1 291.7,224.1 291.0,224.1 290.2,224.1 289.5,224.1 288.7,224.1 288.0,224.1 287.2,224.1 286.5,224.1 285.8,224.1 285.0,224.1 284.3,224.1 283.5,224.1 282.8,224.1 282.0,224.1 281.3,224.1 280.5,224.1 279.8,224.1 279.0,224.1 278.3,224.1 277.5,224.1 276.8,224.1 276.1,224.1 275.3,224.1 274.6,224.1 273.8,224.1 273.1,224.1 272.3,224.1 271.6,224.1 270.8,224.1 270.1,224.1 269.3,224.1 268.6,224.1 267.8,224.1 267.1,224.1 266.4,224.1 265.6,224.1 264.9,224.1 264.1,224.1 263.4,224.1 262.6,224.1 261.9,224.1 261.1,224.1 260.4,224.1 259.6,224.1 258.9,224.1 258.1,224.1 257.4,224.1 256.7,224.1 255.9,224.1 255.2,224.1 254.4,224.1 253.7,224.1 252.9,224.1 252.2,224.1 251.4,224.1 250.7,224.1 249.9,224.1 249.2,224.1 248.4,224.1 247.7,224.1 247.0,224.1 246.2,224.1 245.5,224.1 244.7,224.1 244.0,224.1 243.2,224.1 242.5,224.1 241.7,224.1 241.0,224.1 240.2,224.1 239.5,224.1 238.7,224.1 238.0,224.1 237.3,224.1 236.5,224.1 235.8,224.1 235.0,224.1 234.3,224.1 233.5,224.1 232.8,224.1 232.0,224.1 231.3,224.1 230.5,224.1 229.8,224.1 229.0,224.1 228.3,224.1 227.6,224.1 226.8,224.1 226.1,224.1 225.3,224.1 224.6,224.1 223.8,224.1 223.1,224.1 222.3,224.1 221.6,224.2 220.8,224.2 220.1,224.2 219.3,224.2 218.6,224.3 217.9,224.3 217.1,224.3 216.4,224.4 215.6,224.4 214.9,224.5 214.1,224.5 213.4,224.6 212.6,224.7 211.9,224.7 211.2,224.8 210.4,224.8 209.7,224.9 208.9,225.0 208.2,225.1 207.4,225.2 206.7,225.2 206.0,225.3 205.2,225.4 204.5,225.5 203.7,225.6 203.0,225.7 202.3,225.8 201.5,225.9 200.8,226.1 200.1,226.2 199.3,226.3 198.6,226.4 197.8,226.5 197.1,226.7 196.4,226.8 195.6,226.9 194.9,227.1 194.2,227.2 193.4,227.4 192.7,227.5 192.0,227.6 191.3,227.8 190.5,228.0 189.8,228.1 189.1,228.3 188.3,228.5 187.6,228.6 186.9,228.8 186.2,229.0 185.4,229.2 184.7,229.3 184.0,229.5 183.3,229.7 182.5,229.9 181.8,230.1 181.1,230.3 180.4,230.5 179.7,230.7 179.0,230.9 178.2,231.1 177.5,231.4 176.8,231.6 176.1,231.8 175.4,232.0 174.7,232.2 174.0,232.5 173.3,232.7 172.6,233.0 171.8,233.2 171.1,233.4 170.4,233.7 169.7,233.9 169.0,234.2 168.3,234.4 167.6,234.7 166.9,235.0 166.2,235.2 165.5,235.5 164.8,235.8 164.2,236.0 163.5,236.3 162.8,236.6 162.1,236.9 161.4,237.2 160.7,237.5 160.0,237.8 159.3,238.1 158.7,238.4 158.0,238.7 157.3,239.0 156.6,239.3 155.9,239.6 155.3,239.9 154.6,240.2 153.9,240.5 153.2,240.9 152.6,241.2 151.9,241.5 151.2,241.9 150.6,242.2 149.9,242.5 149.2,242.9 148.6,243.2 147.9,243.6 147.2,243.9 146.6,244.3 145.9,244.6 145.3,245.0 144.6,245.3 144.0,245.7 143.3,246.1 142.7,246.4 142.0,246.8 141.4,247.2 140.7,247.6 140.1,248.0 139.5,248.3 138.8,248.7 138.2,249.1 137.6,249.5 136.9,249.9 136.3,250.3 135.7,250.7 135.0,251.1 134.4,251.5 133.8,251.9 133.2,252.3 132.6,252.8 131.9,253.2 131.3,253.6 130.7,254.0 130.1,254.5 129.5,254.9 128.9,255.3 128.3,255.7 127.7,256.2 127.1,256.6 126.5,257.1 125.9,257.5 125.3,258.0 124.7,258.4 124.1,258.9 123.5,259.3 122.9,259.8 122.3,260.2 121.7,260.7 121.1,261.2 120.6,261.6 120.0,262.1 119.4,262.6 118.8,263.1 118.3,263.5 117.7,264.0 117.1,264.5 116.6,265.0 116.0,265.5 115.4,266.0 114.9,266.5 114.3,267.0 113.8,267.5 113.2,268.0 112.7,268.5 112.1,269.0 111.6,269.5 111.0,270.0 110.5,270.5 110.0,271.0 109.4,271.6 108.9,272.1 108.3,272.6 107.8,273.1 107.3,273.7 106.8,274.2 106.2,274.7 105.7,275.3 105.2,275.8 104.7,276.3 104.2,276.9 103.7,277.4 103.2,278.0 102.7,278.5 102.2,279.1 101.7,279.6 101.2,280.2 100.7,280.7 100.2,281.3 99.7,281.9 99.2,282.4 98.7,283.0 98.2,283.6 97.7,284.1 97.3,284.7 96.8,285.3 96.3,285.8 95.8,286.4 95.4,287.0 94.9,287.6 94.4,288.2 94.0,288.8 93.5,289.4 93.1,289.9 92.6,290.5 92.2,291.1 91.7,291.7 91.3,292.3 90.8,292.9 90.4,293.5 90.0,294.1 89.5,294.8 89.1,295.4 88.7,296.0 88.3,296.6 87.8,297.2 87.4,297.8 87.0,298.4 86.6,299.1 86.2,299.7 85.8,300.3 85.4,300.9 84.9,301.6 84.5,302.2 84.1,302.8 83.8,303.5 83.4,304.1 83.0,304.7 82.6,305.4 82.2,306.0 81.8,306.6 81.4,307.3 81.1,307.9 80.7,308.6 80.3,309.2 80.0,309.9 79.6,310.5 79.2,311.2 78.9,311.8 78.5,312.5 78.2,313.2 77.8,313.8 77.5,314.5 77.1,315.1 76.8,315.8 76.5,316.5 76.1,317.1 75.8,317.8 75.5,318.5 75.1,319.1 74.8,319.8 74.5,320.5 74.2,321.2 73.9,321.9 73.6,322.5 73.3,323.2 73.0,323.9 72.7,324.6 72.4,325.3 72.1,325.9 71.8,326.6 71.5,327.3 71.2,328.0 70.9,328.7 70.6,329.4 70.4,330.1 70.1,330.8 69.8,331.5 69.6,332.2 69.3,332.9 69.0,333.6 68.8,334.3 68.5,335.0 68.3,335.7 68.0,336.4 67.8,337.1 67.5,337.8 67.3,338.5 67.1,339.2 66.8,339.9 66.6,340.6 66.4,341.3 66.1,342.0 65.9,342.8 65.7,343.5 65.5,344.2 65.3,344.9 65.1,345.6 64.9,346.3 64.7,347.1 64.5,347.8 64.3,348.5 64.1,349.2 63.9,349.9 63.7,350.7 63.5,351.4 63.3,352.1 63.2,352.8 63.0,353.6 62.8,354.3 62.7,355.0 62.5,355.7 62.3,356.5 62.2,357.2 62.0,357.9 61.9,358.7 61.7,359.4 61.6,360.1 61.5,360.9 61.3,361.6 61.2,362.3 61.1,363.1 60.9,363.8 60.8,364.5 60.7,365.3 60.6,366.0 60.5,366.7 60.3,367.5 60.2,368.2 60.1,369.0 60.0,369.7 59.9,370.4 59.8,371.2 59.8,371.9 59.7,372.7 59.6,373.4 59.5,374.1 59.4,374.9 59.4,375.6 59.3,376.4 59.2,377.1 59.2,377.9 59.1,378.6 59.0,379.3 59.0,380.1 58.9,380.8 58.9,381.6 58.8,382.3 58.8,383.1 58.8,383.8 58.7,384.6 58.7,385.3 58.7,386.1 58.6,386.8 58.6,387.5 58.6,388.3 58.6,389.0 58.6,389.8 58.6,390.5 58.6,391.3 58.6,392.0 58.6,392.8 58.6,393.5 58.6,394.3 58.6,395.0 58.6,395.8 58.6,396.5 58.7,397.2 58.7,398.0 58.7,398.7 58.7,399.5 58.8,400.2 58.8,401.0 58.9,401.7 58.9,402.5 58.9,403.2 59.0,404.0 59.1,404.7 59.1,405.4 59.2,406.2 59.2,406.9 59.3,407.7 59.4,408.4 59.5,409.2 59.5,409.9 59.6,410.6 59.7,411.4 59.8,412.1 59.9,412.9 60.0,413.6 60.1,414.3 60.2,415.1 60.3,415.8 60.4,416.6 60.5,417.3 60.6,418.0 60.7,418.8 60.9,419.5 61.0,420.2 61.1,421.0 61.2,421.7 61.4,422.4 61.5,423.2 61.7,423.9 61.8,424.6 61.9,425.4 62.1,426.1 62.2,426.8 62.4,427.6 62.6,428.3 62.7,429.0 62.9,429.8 63.1,430.5 63.2,431.2 63.4,431.9 63.6,432.7 63.8,433.4 64.0,434.1 64.2,434.8 64.3,435.5 64.5,436.3 64.7,437.0 64.9,437.7 65.2,438.4 65.4,439.1 65.6,439.8 65.8,440.6 66.0,441.3 66.2,442.0 66.4,442.7 66.7,443.4 66.9,444.1 67.1,444.8 67.4,445.5 67.6,446.2 67.9,446.9 68.1,447.7 68.4,448.4 68.6,449.1 68.9,449.8 69.1,450.5 69.4,451.2 69.7,451.9 69.9,452.6 70.2,453.2 70.5,453.9 70.7,454.6 71.0,455.3 71.3,456.0 71.6,456.7 71.9,457.4 72.2,458.1 72.5,458.8 72.8,459.4 73.1,460.1 73.4,460.8 73.7,461.5 74.0,462.2 74.3,462.8 74.6,463.5 75.0,464.2 75.3,464.9 75.6,465.5 75.9,466.2 76.3,466.9 76.6,467.5 76.9,468.2 77.3,468.9 77.6,469.5 78.0,470.2 78.3,470.9 78.7,471.5 79.0,472.2 79.4,472.8 79.7,473.5 80.1,474.1 80.5,474.8 80.8,475.4 81.2,476.1 81.6,476.7 82.0,477.4 82.4,478.0 82.7,478.6 83.1,479.3 83.5,479.9 83.9,480.5 84.3,481.2 84.7,481.8 85.1,482.4 85.5,483.1 85.9,483.7 86.3,484.3 86.7,484.9 87.2,485.6 87.6,486.2 88.0,486.8 88.4,487.4 88.8,488.0 89.3,488.6 89.7,489.2 90.1,489.8 90.6,490.4 91.0,491.1 91.5,491.7 91.9,492.3 92.4,492.8 92.8,493.4 93.3,494.0 93.7,494.6 94.2,495.2 94.6,495.8 95.1,496.4 95.6,497.0 96.0,497.5 96.5,498.1 97.0,498.7 97.4,499.3 97.9,499.9 98.4,500.4 98.9,501.0 99.4,501.6 99.9,502.1 100.4,502.7 100.9,503.2 101.3,503.8 101.8,504.4 102.4,504.9 102.9,505.5 103.4,506.0 103.9,506.5 104.4,507.1 104.9,507.6 105.4,508.2 105.9,508.7 106.5,509.2 107.0,509.8 107.5,510.3 108.0,510.8 108.6,511.4 109.1,511.9 109.6,512.4 110.2,512.9 110.7,513.4 111.2,513.9 111.8,514.5 112.3,515.0 112.9,515.5 113.4,516.0 114.0,516.5 114.5,517.0 115.1,517.5 115.7,518.0 116.2,518.5 116.8,518.9 117.3,519.4 117.9,519.9 118.5,520.4 119.1,520.9 119.6,521.3 120.2,521.8 120.8,522.3 121.4,522.8 122.0,523.2 122.5,523.7 123.1,524.2 123.7,524.6 124.3,525.1 124.9,525.5 125.5,526.0 126.1,526.4 126.7,526.9 127.3,527.3 127.9,527.7 128.5,528.2 129.1,528.6 129.7,529.0 130.3,529.5 130.9,529.9 131.6,530.3 132.2,530.7 132.8,531.2 133.4,531.6 134.0,532.0 134.7,532.4 135.3,532.8 135.9,533.2 136.5,533.6 137.2,534.0 137.8,534.4 138.4,534.8 139.1,535.2 139.7,535.6 140.4,535.9 141.0,536.3 141.6,536.7 142.3,537.1 142.9,537.5 143.6,537.8 144.2,538.2 144.9,538.6 145.5,538.9 146.2,539.3 146.8,539.6 147.5,540.0 148.2,540.3 148.8,540.7 149.5,541.0 150.2,541.4 150.8,541.7 151.5,542.0 152.2,542.4 152.8,542.7 153.5,543.0 154.2,543.3 154.8,543.7 155.5,544.0 156.2,544.3 156.9,544.6 157.6,544.9 158.2,545.2 158.9,545.5 159.6,545.8 160.3,546.1 161.0,546.4 161.7,546.7 162.3,547.0 163.0,547.3 163.7,547.5 164.4,547.8 165.1,548.1 165.8,548.4 166.5,548.6 167.2,548.9 167.9,549.2 168.6,549.4 169.3,549.7 170.0,549.9 170.7,550.2 171.4,550.4 172.1,550.7 172.8,550.9 173.5,551.1 174.2,551.4 175.0,551.6 175.7,551.8 176.4,552.0 177.1,552.3 177.8,552.5 178.5,552.7 179.2,552.9 180.0,553.1 180.7,553.3 181.4,553.5 182.1,553.7 182.8,553.9 183.6,554.1 184.3,554.3 185.0,554.5 185.7,554.7 186.4,554.8 187.2,555.0 187.9,555.2 188.6,555.4 189.3,555.5 190.1,555.7 190.8,555.9 191.5,556.0 192.3,556.2 193.0,556.3 193.7,556.5 194.5,556.6 195.2,556.7 195.9,556.9 196.7,557.0 197.4,557.1 198.1,557.3 198.9,557.4 199.6,557.5 200.3,557.6 201.1,557.7 201.8,557.9 202.6,558.0 203.3,558.1 204.0,558.2 204.8,558.3 205.5,558.4 206.3,558.5 207.0,558.5 207.7,558.6 208.5,558.7 209.2,558.8 210.0,558.9 210.7,558.9 211.4,559.0 212.2,559.1 212.9,559.1 213.7,559.2 214.4,559.2 215.2,559.3 215.9,559.3 216.7,559.4 217.4,559.4 218.1,559.5 218.9,559.5 219.6,559.5 220.4,559.6 221.1,559.6 221.9,559.6 222.6,559.6 223.4,559.6 224.1,559.6 224.9,559.7 225.6,559.7 226.4,559.7" fill="none" stroke="#bbbbbb" stroke-width="7.084402310905806" stroke-opacity="0.9" stroke-linejoin="round"/>
<polyline points="301.1,559.7 301.6,559.7 302.4,559.7 303.5,559.7 304.8,559.7 306.4,559.7 308.2,559.7 310.1,559.7 312.3,559.7 314.6,559.7 317.1,559.7 319.7,559.7 322.4,559.7 325.3,559.7 328.2,559.7 331.3,559.7 334.4,559.7 337.7,559.7 341.0,559.7 344.4,559.7 347.8,559.7 351.3,559.7 354.9,559.7 358.5,559.7 362.2,559.7 365.9,559.7 369.6,559.7 373.4,559.7 377.2,559.7 381.1,559.7 385.0,559.7 388.9,559.7 392.8,559.7 396.7,559.7 400.7,559.7 404.7,559.7 408.7,559.7 412.7,559.7 416.8,559.7 420.8,559.7 424.9,559.7 428.9,559.7 433.0,559.7 437.1,559.7 441.2,559.7 445.3,559.7 449.5,559.7 453.6,559.7 457.7,559.7 461.9,559.7 466.0,559.7 470.1,559.7 474.3,559.7 478.5,559.7 482.6,559.7 486.8,559.7 490.9,559.7 495.1,559.7 499.3,559.7 503.5,559.7 507.6,559.7 511.8,559.7 516.0,559.7 520.2,559.7 524.4,559.7 528.6,559.7 532.7,559.7 536.9,559.7 541.1,559.7 545.3,559.7 549.5,559.7 553.7,559.7 557.9,559.7 562.1,559.7 566.3,559.7 570.5,559.7 574.7,559.7 578.9,559.7 583.1,559.7 587.3,559.7 591.5,559.7 595.7,559.7 599.9,559.7 604.1,559.7 608.3,559.7 612.5,559.7 616.7,559.7 620.9,559.7 625.1,559.7 629.3,559.7 633.5,559.7 637.7,559.7 641.9,559.7 646.1,559.7 650.3,559.7 654.5,559.7 658.6,559.7 662.6,559.6 666.6,559.6 670.5,559.5 674.4,559.4 678.2,559.2 682.0,559.0 685.7,558.7 689.4,558.3 693.1,557.9 696.7,557.4 700.3,556.9 703.9,556.3 707.5,555.6 711.1,554.9 714.7,554.0 718.2,553.1 721.7,552.2 725.2,551.2 728.6,550.1 732.1,548.9 735.5,547.6 738.8,546.3 742.2,545.0 745.5,543.5 748.7,542.0 752.0,540.4 755.2,538.7 758.3,537.0 761.5,535.2 764.6,533.4 767.6,531.5 770.6,529.5 773.6,527.4 776.5,525.3 779.4,523.1 782.2,520.9 784.9,518.6 787.7,516.2 790.3,513.8 792.9,511.3 795.5,508.8 798.0,506.2 800.5,503.6 802.9,500.9 805.2,498.2 807.5,495.4 809.7,492.5 811.8,489.7 813.9,486.7 816.0,483.7 817.9,480.7 819.8,477.7 821.7,474.6 823.4,471.4 825.1,468.2 826.7,465.0 828.3,461.8 829.8,458.5 831.2,455.2 832.6,451.8 833.8,448.5 835.0,445.1 836.2,441.6 837.2,438.2 838.2,434.7 839.1,431.2 839.9,427.7 840.7,424.2 841.4,420.7 842.0,417.1 842.5,413.6 843.0,410.0 843.3,406.4 843.6,402.8 843.9,399.2 844.0,395.6 844.1,392.0 844.1,388.4 844.0,384.8 843.8,381.2 843.6,377.6 843.2,374.0 842.8,370.4 842.4,366.9 841.8,363.3 841.2,359.7 840.5,356.2 839.7,352.7 838.9,349.1 837.9,345.7 837.0,342.2 835.9,338.7 834.7,335.3 833.5,331.9 832.2,328.5 830.9,325.2 829.4,321.9 827.9,318.6 826.4,315.3 824.7,312.1 823.0,308.9 821.3,305.8 819.4,302.7 817.5,299.6 815.6,296.6 813.5,293.6 811.4,290.7 809.3,287.8 807.1,284.9 804.8,282.1 802.4,279.4 800.0,276.7 797.6,274.0 795.1,271.4 792.5,268.9 789.9,266.4 787.2,263.9 784.5,261.6 781.7,259.2 778.9,257.0 776.1,254.8 773.2,252.7 770.2,250.6 767.2,248.6 764.2,246.6 761.1,244.7 758.0,242.9 754.8,241.2 751.6,239.5 748.4,237.8 745.1,236.3 741.8,234.8 738.5,233.4 735.1,232.1 731.8,230.8 728.4,229.6 724.9,228.5 721.5,227.4 718.0,226.5 714.5,225.6 711.0,224.7 707.4,224.0 703.9,223.3 700.3,222.7 696.7,222.1 693.1,221.7 689.4,221.3 685.7,220.9 682.0,220.7 678.2,220.4 674.5,220.2 670.7,220.1 666.8,220.0 663.0,219.9 659.1,219.8 655.3,219.8 651.4,219.7 647.5,219.7 643.5,219.7 639.6,219.7 635.7,219.8 631.7,219.8 627.7,219.8 623.7,219.9 619.7,219.9 615.7,220.0 611.7,220.0 607.6,220.1 603.6,220.2 599.5,220.2 595.4,220.3 591.4,220.4 587.3,220.4 583.2,220.5 579.1,220.6 575.0,220.6 570.8,220.7 566.7,220.7 562.6,220.8 558.5,220.9 554.3,220.9 550.2,221.0 546.1,221.0 541.9,221.1 537.8,221.2 533.6,221.2 529.5,221.3 525.3,221.3 521.2,221.4 517.0,221.4 512.8,221.5 508.7,221.5 504.5,221.6 500.3,221.6 496.2,221.7 492.0,221.7 487.8,221.8 483.7,221.8 479.5,221.9 475.3,221.9 471.1,221.9 467.0,222.0 462.8,222.0 458.6,222.1 454.4,222.1 450.3,222.1 446.1,222.2 441.9,222.2 437.7,222.2 433.5,222.3 429.3,222.3 425.2,222.4 421.0,222.4 416.8,222.4 412.6,222.4 408.4,222.5 404.2,222.5 400.0,222.5 395.9,222.6 391.7,222.6 387.5,222.6 383.3,222.7 379.1,222.7 374.9,222.7 370.7,222.7 366.5,222.8 362.4,222.8 358.2,222.8 354.0,222.8 349.8,222.9 345.6,222.9 341.4,222.9 337.2,222.9 333.0,223.0 328.8,223.0 324.6,223.0 320.4,223.0 316.3,223.0 312.1,223.1 307.9,223.1 303.7,223.1 299.5,223.1 295.3,223.1 291.1,223.2 286.9,223.2 282.7,223.2 278.5,223.2 274.3,223.2 270.1,223.2 265.9,223.3 261.7,223.3 257.5,223.3 253.3,223.3 249.2,223.3 245.0,223.3 240.9,223.4 236.9,223.4 232.9,223.5 229.0,223.6 225.2,223.7 221.4,223.9 217.6,224.2 213.9,224.5 210.2,224.9 206.5,225.3 202.9,225.8 199.2,226.4 195.6,227.0 192.0,227.7 188.5,228.4 184.9,229.3 181.4,230.2 177.9,231.2 174.4,232.2 171.0,233.3 167.5,234.5 164.2,235.8 160.8,237.1 157.5,238.5 154.2,239.9 150.9,241.5 147.7,243.1 144.5,244.7 141.3,246.5 138.2,248.3 135.1,250.2 132.1,252.1 129.1,254.1 126.1,256.2 123.2,258.3 120.3,260.5 117.5,262.7 114.8,265.0 112.1,267.4 109.4,269.8 106.8,272.3 104.2,274.8 101.7,277.4 99.3,280.1 96.9,282.8 94.6,285.5 92.3,288.3 90.1,291.2 87.9,294.1 85.9,297.0 83.8,300.0 81.9,303.0 80.0,306.1 78.2,309.2 76.4,312.3 74.7,315.5 73.1,318.7 71.5,322.0 70.1,325.3 68.6,328.6 67.3,331.9 66.0,335.3 64.8,338.7 63.7,342.1 62.7,345.6 61.7,349.0 60.8,352.5 60.0,356.0 59.2,359.6 58.6,363.1 58.0,366.7 57.4,370.2 57.0,373.8 56.6,377.4 56.3,381.0 56.1,384.6 56.0,388.2 55.9,391.8 55.9,395.4 56.0,399.0 56.2,402.6 56.5,406.2 56.8,409.8 57.2,413.4 57.7,417.0 58.2,420.6 58.8,424.1 59.5,427.7 60.3,431.2 61.2,434.7 62.1,438.2 63.1,441.7 64.2,445.1 65.3,448.5 66.5,451.9 67.8,455.3 69.2,458.6 70.6,462.0 72.1,465.2 73.7,468.5 75.3,471.7 77.0,474.9 78.8,478.0 80.6,481.1 82.5,484.2 84.5,487.2 86.5,490.2 88.6,493.2 90.8,496.1 93.0,498.9 95.3,501.7 97.6,504.5 100.0,507.2 102.5,509.8 105.0,512.4 107.6,514.9 110.2,517.4 112.8,519.9 115.6,522.2 118.3,524.6 121.2,526.8 124.0,529.0 126.9,531.2 129.9,533.2 132.9,535.2 135.9,537.2 139.0,539.1 142.1,540.9 145.3,542.7 148.5,544.3 151.7,546.0 155.0,547.5 158.3,549.0 161.6,550.4 165.0,551.7 168.3,553.0 171.8,554.2 175.2,555.3 178.6,556.4 182.1,557.3 185.6,558.2 189.1,559.1 192.7,559.8 196.2,560.5 199.8,561.1 203.4,561.6 207.0,562.1 210.7,562.5 214.4,562.8 218.1,563.1 221.9,563.4 225.6,563.6 229.4,563.7 233.3,563.8 237.1,563.9 241.0,564.0 244.8,564.0 248.7,564.1 252.6,564.1 256.6,564.1 260.5,564.0 264.5,564.0 268.4,564.0 272.4,563.9" fill="none" stroke="#1f6feb" stroke-width="2.0" stroke-opacity="1.0" stroke-linejoin="round"/>
<circle cx="301.1" cy="559.7" r="6" fill="green"/>
<rect x="267.4" y="558.9" width="10" height="10" fill="red"/>
</g></svg>